<?xml version="1.0" encoding="UTF-8"?>
<svg id="Layer_2" data-name="Layer 2" xmlns="http://www.w3.org/2000/svg" xmlns:xlink="http://www.w3.org/1999/xlink" viewBox="0 0 3834.86 3378.06">
  <defs>
    <style>
      .cls-1, .cls-2, .cls-3, .cls-4, .cls-5, .cls-6, .cls-7, .cls-8, .cls-9, .cls-10, .cls-11, .cls-12 {
        fill: none;
      }

      .cls-13 {
        fill: #160a0a;
      }

      .cls-13, .cls-2, .cls-3, .cls-14, .cls-15, .cls-16, .cls-4, .cls-17, .cls-18, .cls-5, .cls-19, .cls-20, .cls-21, .cls-22, .cls-23, .cls-6, .cls-7, .cls-8, .cls-9, .cls-10, .cls-24, .cls-11, .cls-12 {
        stroke-width: 5px;
      }

      .cls-13, .cls-2, .cls-3, .cls-14, .cls-4, .cls-17, .cls-18, .cls-5, .cls-19, .cls-20, .cls-21, .cls-23, .cls-8, .cls-9, .cls-10, .cls-24, .cls-11, .cls-12 {
        stroke-linecap: round;
        stroke-linejoin: round;
      }

      .cls-13, .cls-4 {
        stroke: #f28c38;
      }

      .cls-25 {
        fill: #a52941;
      }

      .cls-2 {
        stroke: #3a2921;
      }

      .cls-3 {
        stroke: #dbf2fc;
      }

      .cls-26 {
        fill: #f4abce;
      }

      .cls-27 {
        fill: #3d2820;
      }

      .cls-14, .cls-15, .cls-16, .cls-17, .cls-18, .cls-19, .cls-21, .cls-22, .cls-23, .cls-6, .cls-7, .cls-11 {
        stroke: #020000;
      }

      .cls-14, .cls-28 {
        fill: #fcb006;
      }

      .cls-29 {
        fill: #8bc149;
      }

      .cls-15 {
        stroke-miterlimit: 10;
      }

      .cls-15, .cls-20, .cls-21, .cls-22, .cls-30 {
        fill: #fff;
      }

      .cls-15, .cls-31 {
        opacity: .5;
      }

      .cls-16, .cls-32, .cls-24 {
        fill: #1a7aed;
      }

      .cls-16, .cls-6 {
        stroke-miterlimit: 10;
      }

      .cls-33, .cls-31 {
        fill: #fa7a71;
      }

      .cls-34 {
        fill: #cf485d;
      }

      .cls-35 {
        fill: #f3ac93;
      }

      .cls-17, .cls-36 {
        fill: #020000;
      }

      .cls-18 {
        fill: #fdd504;
      }

      .cls-37 {
        fill: #f7efef;
      }

      .cls-5 {
        stroke: #e98076;
      }

      .cls-19, .cls-38 {
        fill: #faccc4;
      }

      .cls-20, .cls-8 {
        stroke: #060606;
      }

      .cls-39 {
        fill: #0c66bf;
      }

      .cls-31 {
        isolation: isolate;
      }

      .cls-40 {
        clip-path: url(#clippath-11);
      }

      .cls-41 {
        clip-path: url(#clippath-10);
      }

      .cls-42 {
        clip-path: url(#clippath-13);
      }

      .cls-43 {
        clip-path: url(#clippath-14);
      }

      .cls-44 {
        clip-path: url(#clippath-12);
      }

      .cls-45 {
        clip-path: url(#clippath-1);
      }

      .cls-46 {
        clip-path: url(#clippath-3);
      }

      .cls-47 {
        clip-path: url(#clippath-4);
      }

      .cls-48 {
        clip-path: url(#clippath-2);
      }

      .cls-49 {
        clip-path: url(#clippath-7);
      }

      .cls-50 {
        clip-path: url(#clippath-6);
      }

      .cls-51 {
        clip-path: url(#clippath-9);
      }

      .cls-52 {
        clip-path: url(#clippath-8);
      }

      .cls-53 {
        clip-path: url(#clippath-5);
      }

      .cls-22, .cls-7 {
        stroke-miterlimit: 10;
      }

      .cls-23, .cls-54 {
        fill: #7cad42;
      }

      .cls-9 {
        stroke: #044e83;
      }

      .cls-10 {
        stroke: #973443;
      }

      .cls-24 {
        stroke: #fff;
      }

      .cls-55 {
        fill: #f56b4a;
      }

      .cls-56 {
        clip-path: url(#clippath);
      }

      .cls-12 {
        stroke: #ffa800;
      }
    </style>
    <clipPath id="clippath">
      <polygon class="cls-1" points="570.1 1353.25 125.67 1116.56 54.82 1261.93 386.2 1476.33 570.1 1353.25"/>
    </clipPath>
    <clipPath id="clippath-1">
      <path class="cls-1" d="M764.7,1650.97c1308.87-343.22,904.44-383.53,1444.55,723.09l-604-149.65-71.54-483.1-643.11,19.64-125.91-109.97Z"/>
    </clipPath>
    <clipPath id="clippath-2">
      <path class="cls-1" d="M418.72,1261.2c-.84-5.86-134.36,516.79-46.92,797.64,26.53,85.22,668.41-107.25,772.36-61.39,215.55,139.79,692.1,1010.29,1098.2,580.43l-77.58-477.42-939.8-514.85-806.26-324.41Z"/>
    </clipPath>
    <clipPath id="clippath-3">
      <path class="cls-1" d="M2095.21,2064.58c-2.48,220.65,154.85,832.02,386.48,677.14,113.32-47.89,154.97-312.41,251.71-497.9,107.81-167.04,164.66-677.32-48.71-697.32-103.86,67.48-529.88,155.84-319.2,415.96,0,0-170.42,101.23-270.28,102.11Z"/>
    </clipPath>
    <clipPath id="clippath-4">
      <path class="cls-1" d="M2532.94,1654.71c-65.69-315.65-95.76-232.79,112.12-293.13l39.63,201.01-151.75,92.12Z"/>
    </clipPath>
    <clipPath id="clippath-5">
      <path class="cls-1" d="M2624.11,2092.19c-.68-.21-479.58-105.9-482.57-106.61-1.63.96-206.15-153.75-87.69-17.09-5.02,17.5-87.76-48.12-93.99-10.92,12.2,50.32,3.27,83.16,47.85,124.91,100.53,8.6,154.53,16.04,272.28,71.04,353.15,132.61,414.75,291.25,530.25-11.84-30.91-11-150.48-40.38-186.12-49.49Z"/>
    </clipPath>
    <clipPath id="clippath-6">
      <path class="cls-1" d="M2584.53,1724.27c-16.05,203.97-34.73,297.72-15.3,355.85,21.04,62.96,185.01,158.31,303.85,132.59,118.85-25.73,43.35-645.76-137.41-646.2l-151.14,157.76Z"/>
    </clipPath>
    <clipPath id="clippath-7">
      <path class="cls-1" d="M3284.54,575.63c48.72,164.88,565.5,708.77,510.2,753.02-290.63,257.24-598.82-134.97-708.91-78.64-244.9,251.67-176.25-139.83-362.04-21.08-1.05,1.13-81.81-37.33-88.68-39.23,216.54-270.39,392.13-83.85,395.18-420.26s254.24-193.82,254.24-193.82Z"/>
    </clipPath>
    <clipPath id="clippath-8">
      <path class="cls-1" d="M2521.28,1265.47c5.15,110.88-180.07,187.16-222.55,54.87-42.07-147.25,211.14-220.38,222.55-54.87Z"/>
    </clipPath>
    <clipPath id="clippath-9">
      <path class="cls-1" d="M2481.72,1248.05c-283.6,291.27,60.46,432.59,180.26,130.45-142.67,32.22-180.14-129.92-180.26-130.45Z"/>
    </clipPath>
    <clipPath id="clippath-10">
      <path class="cls-1" d="M2414.78,1451.3c8.9,43.53,61.91,37.75,68.83-4.68-.45-7.53-37.72-12.98-68.83,4.68Z"/>
    </clipPath>
    <clipPath id="clippath-11">
      <path class="cls-1" d="M2483.95,1370.55c-10.45,40.31,29.12,50.6,42.16,12.11,11.01-42.3-29.78-49.15-42.16-12.11Z"/>
    </clipPath>
    <clipPath id="clippath-12">
      <path class="cls-1" d="M2400.93,1352.71c-9.43,36.58,23.01,45,34.47,10.16,9.87-38.21-23.52-43.81-34.47-10.16Z"/>
    </clipPath>
    <clipPath id="clippath-13">
      <rect class="cls-1" x="623.78" y="902.16" width="327.59" height="100.01" transform="translate(-444.32 855.57) rotate(-45.92)"/>
    </clipPath>
    <clipPath id="clippath-14">
      <path class="cls-1" d="M822.23,984.28l-69.4-67.2c-7.18-6.95-18.64-6.77-25.6.41l-239.05,246.87c-18.63,19.23-18.13,49.92,1.1,68.55l25.75,24.94c19.23,18.63,49.92,18.13,68.55-1.1l239.05-246.87c6.95-7.18,6.77-18.64-.41-25.6Z"/>
    </clipPath>
  </defs>
  <g id="Layer_1-2" data-name="Layer 1">
    <g>
      <g>
        <path class="cls-14" d="M1951.56,641.91l-1424.42,320.09S521.99,32.94,1410.75,15.2c620.36-12.38,704.66,386.25,704.66,386.25l-163.85,240.46Z"/>
        <path class="cls-21" d="M2341.82,480.88l-1345.23,190.15s326.91,302.48-249.78,750.82l1368.73-293.26,226.28-647.71Z"/>
        <path class="cls-18" d="M2038.55,3375.56c-479.54-449.02,1017.39-508.33,114.1-970.26C1112.45,1873.35,4770.78-201.83,1337.56,18.87c0,0,1219.52,78.71-15.39,1402.6-1231.82,1320.58,780.7,789.83,383.02,1455.24-233.53,390.75,333.36,498.86,333.36,498.86Z"/>
        <polygon class="cls-28" points="2109.36 839.82 1849.59 839.82 2043.42 478.01 2303.18 478.01 2109.36 839.82"/>
        <path class="cls-28" d="M2717.59,545.45h-364.7c-12.13,0-15.39-12.25-7.29-27.37l6.81-12.7c8.1-15.11,24.49-27.37,36.62-27.37h364.7c12.13,0,15.39,12.25,7.29,27.37l-6.81,12.7c-8.1,15.12-24.49,27.37-36.62,27.37ZM2643.23,684.26h-364.7c-12.13,0-15.39-12.25-7.29-27.37l6.81-12.7c8.1-15.11,24.49-27.37,36.62-27.37h364.7c12.13,0,15.39,12.25,7.29,27.37l-6.81,12.7c-8.1,15.12-24.49,27.37-36.62,27.37ZM2568.87,823.06h-364.7c-12.13,0-15.39-12.25-7.29-27.37l6.81-12.7c8.1-15.12,24.49-27.37,36.62-27.37h364.7c12.13,0,15.39,12.25,7.29,27.37l-6.81,12.7c-8.1,15.11-24.49,27.37-36.62,27.37ZM2388.6,1020.48h-622.67c-7.24,0-9.2-7.32-4.36-16.35l4.07-7.59c4.84-9.03,14.63-16.35,21.88-16.35h622.67c7.24,0,9.2,7.32,4.36,16.35l-4.07,7.59c-4.84,9.03-14.63,16.35-21.88,16.35ZM2320.97,1146.72h-622.67c-7.24,0-9.2-7.32-4.36-16.35l4.07-7.59c4.84-9.03,14.63-16.35,21.88-16.35h622.67c7.24,0,9.2,7.32,4.36,16.35l-4.07,7.59c-4.84,9.03-14.63,16.35-21.88,16.35ZM2253.34,1272.96h-622.67c-7.24,0-9.2-7.32-4.36-16.35l4.07-7.59c4.84-9.03,14.63-16.35,21.88-16.35h622.67c7.24,0,9.2,7.32,4.36,16.35l-4.07,7.59c-4.84,9.03-14.63,16.35-21.88,16.35ZM2185.71,1399.21h-622.67c-7.24,0-9.2-7.32-4.36-16.35l4.07-7.59c4.84-9.03,14.63-16.35,21.88-16.35h622.67c7.24,0,9.2,7.32,4.36,16.35l-4.07,7.59c-4.84,9.03-14.63,16.35-21.88,16.35ZM1764.12,1568.42h-291.73c-7.24,0-9.2-7.32-4.36-16.35l4.07-7.59c4.84-9.03,14.63-16.35,21.88-16.35h291.73c7.24,0,9.2,7.32,4.36,16.35l-4.07,7.59c-4.84,9.03-14.63,16.35-21.88,16.35Z"/>
        <path class="cls-13" d="M1851.02,2087.66c-64.63,36.73-136.18,65.68-211.5,85.57"/>
        <path class="cls-4" d="M2245.23,179.34c-19.84,26.59-53.43,46.42-91.1,53.77"/>
        <path class="cls-36" d="M3139.22,1224.54c3.02-2.79,5.34-4.19,9.22-4.73-2.31.32,4.58.41,2.31.07,10.14,8.85,112.31,53.77,86.52,10.04-34.42,17.3-60.69-45.14-110.36-17.71-3.46,5.77-3.64,10.42,12.31,12.33Z"/>
        <path class="cls-2" d="M534.97,1562.4c2.26,34.67,8.55,68.96,18.74,102.17l99.23-118.75"/>
        <path class="cls-19" d="M1130.53,1572.85l-494.47,152.49c134.34,191.37,65.78,128.21,308.15,68.01,244.85-58.38,165.84-71.39,186.32-220.5Z"/>
        <path class="cls-17" d="M745.91,1618.49s.28,179.95,107.11,203.03l-181.35,56.02-470.39-300.36c89.26-142.68,400.53,233.4,544.64,41.31Z"/>
        <polygon class="cls-38" points="570.1 1353.25 125.67 1116.56 54.82 1261.93 386.2 1476.33 570.1 1353.25"/>
        <g class="cls-56">
          <path class="cls-35" d="M166.74,1354.23c168.39,64.74,176.3-18.05,268.03-98.26,127.64,45.42-.4,181.03-40.22,232.02-69.52-.9-191.17-.86-210.38-89.85"/>
        </g>
        <polygon class="cls-11" points="570.1 1353.25 125.67 1116.56 54.82 1261.93 386.2 1476.33 570.1 1353.25"/>
        <path class="cls-17" d="M288.04,1136.18s-169.16,101.49-130.75,192.05L2.5,1228.08l17.84-510.61c184.49-15.5,5.84,422.2,267.69,418.71Z"/>
        <path class="cls-29" d="M764.7,1650.97c1308.87-343.22,904.44-383.53,1444.55,723.09l-604-149.65-71.54-483.1-643.11,19.64-125.91-109.97Z"/>
        <g class="cls-45">
          <g>
            <path class="cls-3" d="M934.88,1669.49c914.57-92.88,617.18-265.87,893.16,406.14"/>
            <path class="cls-3" d="M908.21,1702.37c914.57-92.88,617.18-265.87,893.16,406.14"/>
            <path class="cls-54" d="M1949.83,1431.04c-2.39,137.44-343.03,136.4-347.69-.01,2.39-137.43,343.03-136.38,347.69.01ZM1394.22,1296.45c-324.21,69.2,693.13,680.68,529.04,725.64-123.78,77.41-883.83,144.26-845.96,133.68-115.4-686.48-155.69-518.25,66.86-792.53"/>
          </g>
        </g>
        <path class="cls-11" d="M764.7,1650.97c1308.87-343.22,904.44-383.53,1444.55,723.09l-604-149.65-71.54-483.1-643.11,19.64-125.91-109.97Z"/>
        <path class="cls-29" d="M418.72,1261.2c-.84-5.86-134.36,516.79-46.92,797.64,26.53,85.22,668.41-107.25,772.36-61.39,215.55,139.79,692.1,1010.29,1098.2,580.43l-77.58-477.42-939.8-514.85-806.26-324.41Z"/>
        <g class="cls-48">
          <g>
            <path class="cls-54" d="M2138.08,1999.55c-271.99-116.4,49.6,582.02-180.94,502.37-230.53-79.64-812.98-388.2-812.98-388.2l10.57,201.34,313.83,364.53,791.56,131.72,54.87-601.96-105.76-176.1"/>
            <path class="cls-3" d="M347.13,1361.58l817.8,349.22s784.31,919.93,943.39,611.27"/>
            <path class="cls-3" d="M328.66,1387.99l817.8,349.22s784.31,919.93,943.39,611.27"/>
          </g>
        </g>
        <path class="cls-11" d="M418.72,1261.2c-.84-5.86-134.36,516.79-46.92,797.64,26.53,85.22,668.41-107.25,772.36-61.39,215.55,139.79,692.1,1010.29,1098.2,580.43l-77.58-477.42-939.8-514.85-806.26-324.41Z"/>
        <path class="cls-32" d="M2095.21,2064.58c-2.48,220.65,154.85,832.02,386.48,677.14,113.32-47.89,154.97-312.41,251.71-497.9,107.81-167.04,164.66-677.32-48.71-697.32-103.86,67.48-529.88,155.84-319.2,415.96,0,0-170.42,101.23-270.28,102.11Z"/>
        <g class="cls-46">
          <g>
            <path class="cls-21" d="M2404.74,1643.52c-38.52,157.19,284.19,59.88,279.95-89.7"/>
            <path class="cls-19" d="M2446.65,1647.66c34.33,123.47,355.05-166.87,193.71-95.35"/>
            <path class="cls-39" d="M2584.63,1767.72c-58.17,375.39-317.23,245.67-317.23,245.67l-25.03,124.37s597.62,254.67,241.65,547.75c-355.97,293.08,391.53,156.15,391.53,156.15l62.35-854.71-327.01-228.24"/>
            <path class="cls-24" d="M2191.34,1978.72c-113.5,41.88,12.49,574.62,135.33,655.82"/>
            <path class="cls-39" d="M2292.57,1743.64c-4.11,69.17,134.06,31.59,70.28,100.79-31.78,21.63-18.38,36.24-13.4,74.27,1.6,10.12-11.3,23.9-31.68,15.4-83.91-59.69-111.98,84.19-111.37-74.34-70.64-60.44-23.69-47.48,35.08-76.71,15.75-20.1,11.96-63.21,51.09-39.41ZM2386.96,2418.44c-4.11,69.17,134.06,31.6,70.28,100.79-31.78,21.63-18.38,36.24-13.4,74.27,1.6,10.12-11.3,23.9-31.68,15.4-83.91-59.69-111.98,84.19-111.37-74.34-70.64-60.44-23.69-47.48,35.08-76.71,15.75-20.1,11.96-63.21,51.09-39.41ZM2242.67,2085.31c-.21,43.82,60.73,18.45,57.16,56.78-40.11,8,1.55,83.44-43.06,68.4-50.61-36.32-73.28,54.68-71.36-48.01-42.02-36.17-21.86-32.07,23.31-50.98,7.67-7.73,9.07-43.99,33.95-26.19Z"/>
          </g>
        </g>
        <path class="cls-11" d="M2095.21,2064.58c-2.48,220.65,154.85,832.02,386.48,677.14,113.32-47.89,154.97-312.41,251.71-497.9,107.81-167.04,164.66-677.32-48.71-697.32-103.86,67.48-529.88,155.84-319.2,415.96,0,0-170.42,101.23-270.28,102.11Z"/>
        <path class="cls-38" d="M2532.94,1654.71c-65.69-315.65-95.76-232.79,112.12-293.13l39.63,201.01"/>
        <g class="cls-47">
          <path class="cls-26" d="M2525.8,1641.47c-7.01-100.67,53.49-168.61,24.88-191.39-73.47,16.5-124.25,49.94-101.18,109.65"/>
        </g>
        <path class="cls-11" d="M2532.94,1654.71c-65.69-315.65-95.76-232.79,112.12-293.13l39.63,201.01"/>
        <path class="cls-38" d="M2624.11,2092.19c-.68-.21-479.58-105.9-482.57-106.61-1.63.96-206.15-153.75-87.69-17.09-5.02,17.5-87.76-48.12-93.99-10.92,12.2,50.32,3.27,83.16,47.85,124.91,100.53,8.6,154.53,16.04,272.28,71.04,353.15,132.61,414.75,291.25,530.25-11.84-30.91-11-150.48-40.38-186.12-49.49Z"/>
        <g class="cls-53">
          <path class="cls-35" d="M2612.15,2055.78c-160.81-4.3,257.19,205.27,9.63,296.58,339.44-93.14,264.65-63.93,237.66-276.73"/>
        </g>
        <path class="cls-11" d="M2624.11,2092.19c-.68-.21-479.58-105.9-482.57-106.61-1.63.96-206.15-153.75-87.69-17.09-5.02,17.5-87.76-48.12-93.99-10.92,12.2,50.32,3.27,83.16,47.85,124.91,100.53,8.6,154.53,16.04,272.28,71.04,353.15,132.61,414.75,291.25,530.25-11.84-30.91-11-150.48-40.38-186.12-49.49Z"/>
        <path class="cls-32" d="M2584.53,1724.27c-16.05,203.97-34.73,297.72-15.3,355.85,21.04,62.96,185.01,158.31,303.85,132.59,118.85-25.73,43.35-645.76-137.41-646.2"/>
        <g class="cls-50">
          <path class="cls-39" d="M2876.34,1894.71c-4.11,69.17,134.06,31.59,70.28,100.79-31.78,21.63-18.38,36.24-13.4,74.27,1.6,10.12-11.3,23.9-31.68,15.4-83.91-59.69-111.98,84.19-111.37-74.34-70.64-60.44-23.69-47.48,35.08-76.71,15.75-20.1,11.96-63.21,51.09-39.41ZM2580.77,1727.05c-4.11,69.17,134.06,31.6,70.28,100.79-31.78,21.63-18.38,36.24-13.4,74.27,1.6,10.12-11.3,23.9-31.68,15.4-83.91-59.69-111.98,84.19-111.37-74.34-70.64-60.44-23.69-47.48,35.08-76.71,15.75-20.1,11.96-63.21,51.09-39.41Z"/>
        </g>
        <path class="cls-11" d="M2584.53,1724.27c-16.05,203.97-34.73,297.72-15.3,355.85,21.04,62.96,185.01,158.31,303.85,132.59,118.85-25.73,43.35-645.76-137.41-646.2"/>
        <path class="cls-10" d="M2435.54,1463.57c-6.97,30.24-33.18,33.48-33.18,33.48"/>
        <path class="cls-9" d="M2688.93,1991.21l16.66,12.49"/>
        <path class="cls-5" d="M2143.46,1991.21v24.98"/>
        <path class="cls-9" d="M2268.82,2286.86c-4.21,37.96,3.23,58.87,62.8,90.35"/>
        <path class="cls-3" d="M1102.85,1842.15c16.54-7.52,30.8-19.29,41.31-34.12"/>
        <path class="cls-2" d="M263.89,974.09c-36.12,28.15-68.51,60.78-96.39,97.11l204.31-35.74"/>
        <path class="cls-3" d="M1935.26,2339.94c12.49-138.45,88.48-127,88.48-127"/>
        <path class="cls-5" d="M2052.11,1973.32l8.33,2.09"/>
        <path class="cls-3" d="M1695.97,1941.88l-18.75,31.22"/>
        <path class="cls-36" d="M3284.54,575.63c79.16,16.8,210.65,57.35,326.44,165.65,169.26,158.31,290.34,447.7,183.75,587.37-39.4,51.63-97.95,68.35-148.55,80.25-241.06,56.7-468.97-205.65-560.36-158.88-244.9,251.67-176.25-139.83-362.04-21.08-1.05,1.13-81.81-37.33-88.68-39.23,216.54-270.39,392.13-83.85,395.18-420.26,1.61-177.9,60.28-195.61,78.16-207.1,16.09-10.34,67.15-36.25,176.09,13.29Z"/>
        <g class="cls-49">
          <g>
            <path class="cls-23" d="M2706.01,1103.68c209,248.69-155.04,161.63-112.21-14.75"/>
            <path class="cls-36" d="M3030.29,769.45c46.29,285.12,23.07,245.64-181.36,259.4-204.43,13.76,27.18-185.77,27.18-185.77"/>
          </g>
        </g>
        <path class="cls-11" d="M3284.54,575.63c48.72,164.88,565.5,708.77,510.2,753.02-290.63,257.24-598.82-134.97-708.91-78.64-244.9,251.67-176.25-139.83-362.04-21.08-1.05,1.13-81.81-37.33-88.68-39.23,216.54-270.39,392.13-83.85,395.18-420.26s254.24-193.82,254.24-193.82Z"/>
        <path class="cls-36" d="M2521.28,1265.47c5.15,110.88-180.07,187.16-222.55,54.87-42.07-147.25,211.14-220.38,222.55-54.87Z"/>
        <g class="cls-52">
          <path class="cls-36" d="M2286.52,1353.38c57.67,40.98,130.85-46.56,145.6-38.63,16.92,34.63-64.46,169.44-103.77,132.05"/>
        </g>
        <path class="cls-11" d="M2521.28,1265.47c5.15,110.88-180.07,187.16-222.55,54.87-42.07-147.25,211.14-220.38,222.55-54.87Z"/>
        <path class="cls-17" d="M2430.84,1320.34c5.65-.82-50.3,42.21-29.93,37.86-12.72,188,214.26,137.86,302.57,24.76,141.49-181.21-123.02-309.13-259.77-171.75"/>
        <path class="cls-36" d="M2579.54,1231.28c-25.53,38.46,104.05,82.62,27.37,33.16-1.33-1.39-7.01-5.84-9.72-13.74-3.1-.55,2.42-41.53-17.65-19.42h0Z"/>
        <polygon class="cls-1" points="2481.71 1248 2481.69 1248.05 2481.72 1248.05 2481.71 1248"/>
        <path class="cls-38" d="M2481.72,1248.05c-283.6,291.27,60.46,432.59,180.26,130.45-142.67,32.22-180.14-129.92-180.26-130.45Z"/>
        <g class="cls-51">
          <g>
            <path class="cls-34" d="M2414.78,1451.3c8.9,43.53,61.91,37.75,68.83-4.68-.45-7.53-37.72-12.98-68.83,4.68Z"/>
            <g class="cls-41">
              <g>
                <path class="cls-25" d="M2486.85,1470.43c18.45,43.48-103.56,47.59-38.03-13.49,9.51-2.15,18.53-4.43,38.03,13.49Z"/>
                <path class="cls-37" d="M2425.24,1441.82c17.71,35.28,78.01-19.25,4.65-2.29"/>
              </g>
            </g>
            <path class="cls-30" d="M2483.95,1370.55c-10.45,40.31,29.12,50.6,42.16,12.11,11.01-42.3-29.78-49.15-42.16-12.11Z"/>
            <g class="cls-40">
              <path class="cls-27" d="M2485.7,1371.35c-3.1,19.91,16.95,25.24,22.11,3.16,3.16-20.37-17.09-24.77-22.11-3.16Z"/>
            </g>
            <path class="cls-30" d="M2400.93,1352.71c-9.43,36.58,23.01,45,34.47,10.16,9.87-38.21-23.52-43.81-34.47-10.16Z"/>
            <g class="cls-44">
              <path class="cls-27" d="M2400.91,1358.2c-2.86,18.04,13.56,22.56,18.13,2.57,2.91-18.42-13.66-22.17-18.13-2.57Z"/>
            </g>
            <path class="cls-27" d="M2415.54,1293.17c41.56,1.92,47.14,22.73,19.9,22.76-25.65.04-45.01-23.93-19.9-22.76ZM2507.11,1318.44c52.31-3.86,63.36,18.23,29.08,22.14-32.11,3.67-60.45-19.83-29.08-22.14Z"/>
            <path class="cls-55" d="M2432.61,1408.54c6.09-6.24,18.59-44.41,22.9-24.29,7.27,25.95-20.88,73.16-22.9,24.29Z"/>
            <path class="cls-31" d="M2493.85,1440.02c-2.21,25.52,94.63,29.69,67.69-11.66-16.59-14.65-59.24-15.26-67.69,11.66ZM2327.97,1431.74c-2.21,25.52,94.63,29.69,67.69-11.66-16.59-14.65-59.24-15.26-67.69,11.66Z"/>
            <path class="cls-33" d="M2441.97,1263c15.98-10.29,31.97-3.49,43.03,19.84,111.75,124.35,73.27-119.57-22-72.4"/>
          </g>
        </g>
        <path class="cls-11" d="M2481.72,1248.05c-283.6,291.27,60.46,432.59,180.26,130.45-142.67,32.22-180.14-129.92-180.26-130.45Z"/>
        <path class="cls-19" d="M2630.68,1382.49c147.25-76.6,83.26,103.89-18.31,76.71"/>
        <path class="cls-12" d="M2703.06,1424.72c215.34,192.49-270.59,158.45-28.39-1.6"/>
      </g>
      <g>
        <path class="cls-16" d="M1445.13,1014.73c0,206.43,167.18,373.78,373.4,373.78,39.6-.03,78.94-6.39,116.54-18.82l235.16,72.65c26.22,8.1,49.67-18.64,38.26-43.62l-80.12-175.37c41.53-61.64,63.67-134.3,63.55-208.62,0-206.44-167.18-373.78-373.4-373.78-206.22,0-373.4,167.35-373.4,373.78Z"/>
        <path class="cls-20" d="M1837.82,965.79c11.13-9.43,19.4-17.91,24.81-25.45,5.41-7.54,8.11-16.96,8.11-28.27,0-14.14-4.5-25.92-13.51-35.34-9.01-9.43-22.03-14.14-39.06-14.14-31.45,0-51.59,16.02-60.44,48.07l-57.98-25.92c7.53-25.45,21.78-44.92,42.75-58.44,20.96-13.5,47.99-20.26,81.08-20.27,23.59,0,44.63,4.24,63.14,12.73,18.5,8.49,32.92,20.27,43.25,35.34,10.32,15.09,15.48,32.21,15.48,51.37,0,16.03-2.78,30.01-8.35,41.94-5.35,11.62-12.57,22.29-21.38,31.57-8.69,9.12-21.87,21.37-39.56,36.76-8.49,7.35-15.06,16.65-19.17,27.09-3.93,10.21-5.89,23.49-5.89,39.82h-60.93c0-26.7,2.62-47.99,7.86-63.86,5.24-15.86,14.41-29.76,27.51-41.7l12.29-11.31ZM1821.6,1124.6c12.77,0,23.01,3.69,30.71,11.08,7.69,7.38,11.54,17.2,11.55,29.45,0,12.26-3.85,22.07-11.55,29.45-7.7,7.38-17.94,11.07-30.71,11.08-12.78,0-23.01-3.69-30.72-11.08-7.7-7.38-11.55-17.2-11.54-29.45,0-12.26,3.85-22.07,11.54-29.45,7.69-7.38,17.93-11.07,30.72-11.08Z"/>
        <path class="cls-8" d="M2129.88,1121.41l-59.82,39.22M1636.25,839.87l-13.5,9.17"/>
      </g>
      <g>
        <rect class="cls-32" x="737.57" y="788.37" width="100.01" height="327.59" transform="translate(690.98 2184.05) rotate(-135.92)"/>
        <g class="cls-42">
          <path class="cls-39" d="M809.49,748.22c34.14,217.93,76.15,126.66,13.15,261.65-63,135,262.24-52.44,262.24-52.44l-146.66-160.84-32.82-38.89"/>
        </g>
        <rect class="cls-7" x="737.57" y="788.37" width="100.01" height="327.59" transform="translate(690.98 2184.05) rotate(-135.92)"/>
        <path class="cls-16" d="M867.05,377.97c-131.53,135.82-128.04,352.56,7.78,484.08,135.82,131.53,352.55,128.05,484.08-7.78,131.53-135.82,128.05-352.55-7.78-484.08-135.82-131.53-352.56-128.05-484.08,7.78ZM938.22,796.6s0,0,0,0c-99.67-96.52-102.23-255.56-5.71-355.24,96.52-99.67,255.57-102.23,355.24-5.71,99.67,96.52,102.23,255.57,5.71,355.24-96.52,99.67-255.57,102.23-355.24,5.71h0Z"/>
        <path class="cls-32" d="M822.23,984.28l-69.4-67.2c-7.18-6.95-18.64-6.77-25.6.41l-239.05,246.87c-18.63,19.23-18.13,49.92,1.1,68.55h0l25.75,24.94c19.23,18.62,49.92,18.13,68.55-1.1h0l239.05-246.87c6.95-7.18,6.77-18.64-.41-25.6Z"/>
        <g class="cls-43">
          <g>
            <rect class="cls-22" x="487.87" y="1024.03" width="257.74" height="114.11" transform="translate(307.75 2286.75) rotate(-135.92)"/>
            <path class="cls-39" d="M546.98,1058.98c-103.87,215.77,78.93,215.24,78.93,215.24l-88.82,111.48-190.1-61.15,174.98-255.83"/>
          </g>
        </g>
        <path class="cls-7" d="M822.23,984.28l-69.4-67.2c-7.18-6.95-18.64-6.77-25.6.41l-239.05,246.87c-18.63,19.23-18.13,49.92,1.1,68.55h0l25.75,24.94c19.23,18.62,49.92,18.13,68.55-1.1h0l239.05-246.87c6.95-7.18,6.77-18.64-.41-25.6Z"/>
        <circle class="cls-15" cx="1112.98" cy="616.13" r="251.22"/>
        <path class="cls-6" d="M1376.61,490.44l-6.76-30.98M713.18,1049.42l-17.4-25.43M830.16,687.62c-8.95-15.05-14.23-32-15.41-49.47"/>
      </g>
    </g>
  </g>
</svg>