<?xml version="1.0" encoding="UTF-8"?>
<svg id="Layer_2" data-name="Layer 2" xmlns="http://www.w3.org/2000/svg" viewBox="0 0 3921.55 3027.11">
  <defs>
    <style>
      .cls-1, .cls-2, .cls-3 {
        stroke: #020000;
        stroke-miterlimit: 10;
        stroke-width: 5px;
      }

      .cls-1, .cls-4 {
        fill: #f7524b;
      }

      .cls-5 {
        fill: #8bc149;
      }

      .cls-2, .cls-6 {
        fill: #1a7aed;
      }

      .cls-7 {
        fill: #fff;
      }

      .cls-8 {
        fill: #020000;
      }

      .cls-3 {
        fill: #ffc804;
      }

      .cls-9 {
        fill: #ffb4b6;
      }

      .cls-10 {
        fill: #7bbfa4;
      }
    </style>
  </defs>
  <g id="Layer_1-2" data-name="Layer 1">
    <g>
      <path class="cls-2" d="M2539.67,1077.41v121.15H980.94v-121.15c0-33.24,26.94-60.18,60.18-60.18h1438.36c33.24,0,60.18,26.94,60.18,60.18Z"/>
      <path class="cls-10" d="M2539.67,2240.22v6.02c0,29.91-24.25,54.16-54.16,54.16h-6.02c33.24,0,60.18-26.94,60.18-60.18Z"/>
      <path class="cls-3" d="M2539.67,1198.56v1041.67c0,33.24-26.94,60.18-60.18,60.18h-1438.36c-33.24,0-60.18-26.94-60.18-60.18v-1041.67h1558.73Z"/>
      <path class="cls-7" d="M1459.3,1988.6l-154.61-108.6,34.63-49.32,119.97,84.26,137.28-96.44,137.28,96.44,137.31-96.44,137.31,96.44,119.97-84.29,34.64,49.35-154.61,108.6-137.31-96.44-137.31,96.44-137.28-96.44-137.28,96.44Z"/>
      <path class="cls-7" d="M1291.51,1561.97l175.39-175.39,42.62,42.62-175.39,175.39-42.62-42.62Z"/>
      <path class="cls-7" d="M1291.48,1429.26l42.62-42.62,175.39,175.39-42.62,42.62-175.39-175.39Z"/>
      <path class="cls-7" d="M1958.26,1561.95l175.39-175.39,42.62,42.62-175.39,175.39-42.62-42.62Z"/>
      <path class="cls-7" d="M1958.26,1429.27l42.62-42.62,175.39,175.39-42.62,42.62-175.39-175.39Z"/>
      <circle class="cls-7" cx="1117.77" cy="1115.93" r="25.67"/>
      <circle class="cls-7" cx="1213.79" cy="1115.93" r="25.67" transform="translate(-82.16 2135.29) rotate(-80.78)"/>
      <circle class="cls-7" cx="1309.81" cy="1115.93" r="25.67"/>
      <g>
        <path class="cls-1" d="M1696.99,2709.14h-652.26c-34.35.03-62.22-27.8-62.25-62.15,0-10.93,2.86-21.67,8.32-31.13l326.16-564.9c17.2-29.76,55.26-39.94,85.02-22.74,9.44,5.46,17.28,13.3,22.74,22.74l326.16,564.9c17.17,29.75,6.96,67.79-22.79,84.96-9.46,5.46-20.18,8.33-31.1,8.32Z"/>
        <path class="cls-7" d="M1696.99,2676.91h-652.26c-16.62-.11-30-13.67-29.9-30.28.03-5.15,1.39-10.2,3.93-14.67l326.13-564.87c8.41-14.33,26.85-19.14,41.18-10.73,4.43,2.6,8.13,6.29,10.73,10.73l326.16,564.87c8.21,14.45,3.15,32.82-11.3,41.03-4.47,2.54-9.53,3.89-14.67,3.93ZM1357.93,2074.51l-326.28,564.87c-4.2,7.17-1.8,16.39,5.36,20.59,2.34,1.37,5.01,2.09,7.73,2.07h652.26c8.31.06,15.1-6.62,15.16-14.93.02-2.71-.69-5.38-2.07-7.73l-326.16-564.87c-4.18-7.18-13.4-9.61-20.57-5.42-2.25,1.31-4.12,3.18-5.42,5.42Z"/>
        <path class="cls-7" d="M1370.87,2513.18c-11.79-.02-21.5-9.29-22.06-21.06l-12.55-237.72c-.63-12.2,8.75-22.6,20.94-23.23.37-.02.74-.03,1.11-.03h25.1c12.2,0,22.09,9.89,22.09,22.09,0,.39-.01.78-.03,1.17l-12.55,237.72c-.55,11.79-10.26,21.06-22.06,21.06Z"/>
        <circle class="cls-7" cx="1370.87" cy="2574.39" r="26.75"/>
      </g>
      <g>
        <path class="cls-6" d="M1276.7,545.84v-23.23h127.98v23.23h-127.98Z"/>
        <path class="cls-6" d="M1614.27,545.84v-23.23h127.98v23.23h-127.98Z"/>
        <g>
          <path class="cls-6" d="M1364.66,423h23.23v199.17h-23.23v-199.17Z"/>
          <path class="cls-6" d="M1311.44,401.76l22.36,6.31-34.78,123.16-22.36-6.31,34.78-123.16Z"/>
          <path class="cls-6" d="M1702.25,423h23.23v199.17h-23.23v-199.17Z"/>
          <path class="cls-6" d="M1649.03,401.76l22.36,6.31-34.78,123.16-22.36-6.31,34.78-123.16Z"/>
          <path class="cls-6" d="M1440.37,475.27v77.79c-1.95,38.17,27.41,70.7,65.59,72.65,38.17,1.95,70.7-27.41,72.65-65.59.12-2.35.12-4.71,0-7.07v-77.79c1.95-38.17-27.41-70.7-65.59-72.65-38.17-1.95-70.7,27.41-72.65,65.59-.12,2.35-.12,4.71,0,7.07ZM1463.6,553.06v-77.79c0-25.34,20.55-45.89,45.89-45.89s45.89,20.55,45.89,45.89h0v77.79c0,25.34-20.55,45.89-45.89,45.89s-45.89-20.55-45.89-45.89Z"/>
          <path class="cls-6" d="M1540.65,432.63l14.21,6.96-76.37,155.89-14.21-6.96,76.37-155.89Z"/>
          <path class="cls-6" d="M1509.49,864.05c-2.04,0-3.94-1.03-5.06-2.74l-55.7-85.46h-209.46c-36.56,0-66.2-29.64-66.2-66.2v-371.39c0-36.56,29.64-66.2,66.2-66.2h540.44c36.56,0,66.2,29.64,66.2,66.2,0,3.32-2.69,6.02-6.02,6.02s-6.02-2.69-6.02-6.02c0-29.91-24.25-54.16-54.16-54.16h-540.44c-29.91,0-54.16,24.25-54.16,54.16v371.39c0,29.91,24.25,54.16,54.16,54.16h212.71c2.04,0,3.94,1.03,5.06,2.74l52.45,80.46,52.45-80.46c1.11-1.71,3.01-2.74,5.06-2.74h212.71c29.91,0,54.16-24.25,54.16-54.16v-286.2c0-3.32,2.69-6.02,6.02-6.02s6.02,2.69,6.02,6.02v286.2c0,36.56-29.64,66.2-66.2,66.2h-209.46l-55.73,85.46c-1.11,1.7-3,2.73-5.03,2.74h0Z"/>
        </g>
      </g>
      <path class="cls-4" d="M2735.34,2895.32s-160.87,122.25,69.85,125.88,80.42-111.91,80.42-111.91M3280.88,2849.86c0,6.99-97.91,111.91,38.48,118.9,136.39,6.99,293.77,3.49,283.29-27.97-10.48-31.46-185.38-111.91-185.38-111.91"/>
      <path class="cls-8" d="M3424.28,2786.96l-1.31,1.69c-20.37,26.75-54.37,40.75-98.15,40.75-26.2,0-48.35-4.69-71.98-11.15-26.57-73.46-91.42-568.56-101.32-646.86-72.91-145.82-117.53-256.95-122.25-269.15l-3.58-1.83.29-3.9c-13.42,124.72-91.83,855.72-112.15,977.97l-2.91,1.22c-55.83,23.52-149.98,23.28-199.9-15.16,37.11-778.68-25.41-1013.65-27.3-1287.14l7.86,2.91c119.1,43.14,463.87,36.09,584.83-8,28.61,127.69,81.03,365.55,102.57,494.81,13.1,78.59,15.31,126.09,22.7,283.55,6.2,149.93,22.56,440,22.59,440.29h0Z"/>
      <path class="cls-5" d="M2949.91,1605.07c-69.53,0-235.53-3.81-291.32-46.02,3.84-88.89,4.6-309.34,4.6-398,80.83-64.99,135.02-128.07,243.85-215.39,17.2,2.33,33.41,2.12,46.57,12.08,21.71,16.39,43.05,34.93,54.08,25.5,8.47-7.25,6.9-17.32,1.66-27.16l-6.84-12.98,12.72,7.71c8,4.86,22.44,12.14,29.11,5.53,8.59-8.73,3.38-22.15-2.91-32.66l5.82-5.53c9.11,5.82,24.36,13.91,31.46,5.82,7.51-8.59,3.87-19.38-2.24-28.93l-7.57-11.64c11.15,5.12,20.84,10.57,29.46,9.84,7.59-.51,13.33-7.07,12.82-14.65-.07-1.08-.27-2.15-.6-3.19-5.47-22.85-53.85-55.74-96.46-76.64-55.3-27.19-175.6,28.7-231.45,55.94-83.13,40.54-173.24,94.13-252.35,142.36-26.43-12.95-64.59-47.65-85.89-67.76,30.56-59.23,84.41-142.33,149.84-222.4,57.81-70.64,175.1-94.51,265.54-91.51,30.42,38.07,88.31,92.35,136.48,82.25,32.02-6.69,24.39-67.24,22.56-79.31l-.79-5.01c85.81,5.47,196.58,27.85,267.6,76.29,79.46,54.17,111.94,94.01,122.25,108.65.76,1.08.58.64.73,1.89,6.58,60.19,13.42,125.45,28,181.71-12.08,28.38-42.52,56.47-70.29,71.83l-1.31-.2-.47,1.16c-7.28,3.61-21.1,9.93-28.35,5.82-14.96-8.73-59.67-45.64-73.03-56.79-1.43-1.19-1.19-.9-1.25-1.31-.7,5.12,40.02,260.3,23.58,561.31-66.48,34.11-256.51,41.36-335.59,41.36Z"/>
      <path class="cls-8" d="M2658.59,1564.82h-.26c-3.21-.14-5.7-2.86-5.56-6.07,0,0,0,0,0-.01,4.54-101.23,4.6-344.88,4.6-347.32,0-3.22,2.61-5.82,5.82-5.82s5.82,2.61,5.82,5.82c0,2.44,0,246.36-4.6,347.85-.14,3.11-2.71,5.56-5.82,5.56h0ZM3285.45,1569.44h-.32c-3.19-.19-5.64-2.92-5.47-6.11,21.6-387.67-52.16-739.56-53.03-743.11-.63-3.22,1.47-6.33,4.69-6.96,3.22-.63,6.33,1.47,6.96,4.69.73,3.52,74.8,356.9,53.12,746.14-.25,3.08-2.85,5.43-5.94,5.36ZM3371.89,765.56c-2.1.02-4.04-1.09-5.09-2.91,0,0-13.8-22.41-84.41-68.25-52.39-33.97-121.43-52.39-170.16-61.94-31.21-6.18-62.77-10.41-94.51-12.66-3.22-.17-5.68-2.91-5.52-6.13.17-3.21,2.91-5.68,6.13-5.52,6.78.35,167.3,9.58,270.4,76.43,74.1,48.05,87.78,71.34,88.34,72.33,1.57,2.8.58,6.34-2.21,7.92-.91.5-1.93.75-2.97.73h0Z"/>
      <g>
        <path class="cls-1" d="M616.51,1306.07c-56.25-56.33-147.51-56.39-203.84-.14-.05.05-.09.09-.14.14l-80.39-80.42c100.62-100.73,263.84-100.83,364.58-.21.07.07.14.14.21.21l-80.42,80.42Z"/>
        <path class="cls-1" d="M783.17,1139.41c-148.21-148.37-388.63-148.5-537.01-.3-.1.1-.2.2-.3.3l-80.39-80.39c192.54-192.77,504.89-192.96,697.66-.42.14.14.28.28.42.42l-80.39,80.39Z"/>
        <path class="cls-1" d="M945.12,977.46c-237.57-237.81-622.94-238.01-860.75-.45-.15.15-.3.3-.45.45L3.54,897.04c282.33-282.33,739.53-282.33,1021.98,0l-80.39,80.42Z"/>
        <polygon class="cls-1" points="624.58 1427.77 570.98 1374.17 514.56 1430.6 458.1 1374.13 404.5 1427.73 460.97 1484.19 404.5 1540.66 458.1 1594.25 514.56 1537.79 570.98 1594.21 624.58 1540.62 568.15 1484.19 624.58 1427.77"/>
      </g>
      <path class="cls-4" d="M2391.07,188.24c-35.62-48.75-104.02-59.39-152.77-23.77-46.79,34.19-58.77,98.95-27.31,147.62l34.26-22c-20.49-31.85-11.29-74.28,20.56-94.77,1.27-.82,2.57-1.59,3.89-2.32,30.23-16.38,67.89-8.16,88.54,19.33,16.54,22.41,17.88,52.59,3.41,76.37-17.67,30.11-16.79,67.62,2.27,96.87l12.95,20.2,34.23-21.98-12.95-20.2c-10.71-16.15-11.38-36.96-1.72-53.76,23.06-37.86,20.94-85.9-5.36-121.58ZM2417.47,431.39c-13.88,8.91-17.9,27.39-8.98,41.27,8.91,13.88,27.39,17.9,41.27,8.98,13.87-8.91,17.9-27.38,8.99-41.26-8.91-13.88-27.38-17.91-41.26-9h-.01Z"/>
      <path class="cls-7" d="M2292.05,2098.77c-3.21-.01-5.81-2.63-5.8-5.85,0-1.53.61-2.99,1.69-4.08l120.38-120.38c2.38-2.16,6.06-1.99,8.22.39,2.01,2.21,2.02,5.6.01,7.82l-120.41,120.41c-1.09,1.08-2.57,1.69-4.1,1.69h0Z"/>
      <path class="cls-8" d="M2822.95,2897.56c-45.61,0-90.23-11.32-115.84-32.74-1.4-1.18-2.17-2.95-2.07-4.77,26.72-498.12,3.32-809.15-13.77-1036.41-7.54-100.45-13.51-179.76-13.51-251.86,0-3.21,2.61-5.82,5.82-5.82s5.82,2.61,5.82,5.82c0,71.66,5.82,150.8,13.48,250.98,17.09,227.03,40.46,537.83,13.94,1034.9,41.01,31.64,132,37.63,191.66,12.57,22.03-128.27,131.18-1157.61,132.29-1168.09.35-3.21,3.23-5.54,6.45-5.2,3.22.35,5.54,3.23,5.2,6.45h0c-1.11,10.54-112.18,1057.69-132.96,1171.99-.34,1.89-1.59,3.49-3.35,4.28-27.3,12.08-60.51,17.9-93.17,17.9h0Z"/>
      <path class="cls-8" d="M3296.93,332.25l15.87-3.96,24.33,97.45-15.87,3.96-24.33-97.45Z"/>
      <path class="cls-8" d="M3348.24,415.13l21.32-88.54,15.9,3.83-21.32,88.54-15.9-3.83Z"/>
      <path class="cls-8" d="M3330.92,326.77l16.35-.44,2.63,97.03-16.35.44-2.63-97.03Z"/>
      <path class="cls-8" d="M3053.68,768.49l35.8-93.85,15.28,5.83-35.8,93.85-15.28-5.83Z"/>
      <path class="cls-8" d="M3084.14,772.03l68.15-60.42,10.85,12.24-68.15,60.42-10.85-12.24Z"/>
      <path class="cls-8" d="M3067.11,770.66l53.36-81.08,13.66,8.99-53.36,81.08-13.66-8.99Z"/>
      <path class="cls-8" d="M3342.15,1067.62c-3.11.09-6.18-.66-8.91-2.15-2.71-1.72-3.51-5.32-1.79-8.04,1.62-2.55,4.93-3.44,7.61-2.04,1.6.93,5.82.99,13.07-1.57,24.01-8.73,66.94-42.23,79.23-75.33.95-3.07,4.21-4.79,7.28-3.83,3.07.95,4.79,4.21,3.83,7.28-.07.21-.14.42-.23.62-13.77,36.73-59.49,72.62-86.18,82.2-4.44,1.73-9.15,2.7-13.91,2.85h0Z"/>
      <path class="cls-2" d="M3618.54,1930.56c-7.39-1.34-182.2-35.16-259.57-257.07-43.98-126.18-57.86-572.49-62.49-719.13-8.99-289.49-9.98-559.42-9.98-562.1l116.42-.38c.96,295.98,14.55,1096.29,65.9,1243.27,54.11,155.22,166.2,179.96,170.94,180.95l-.7-.15-20.52,114.59Z"/>
      <path class="cls-9" d="M2860.88,391.05l-1.25,224.12s73.76,95.35,136.45,82.23c36.27-7.63,21.86-83.53,21.86-83.53l-10.1-103.71-146.96-119.1Z"/>
      <path class="cls-8" d="M2983.85,704.44c-61.76,0-125.94-81.96-128.85-85.72-.78-1.03-1.2-2.29-1.19-3.58l.29-54.08c0-3.21,2.61-5.82,5.82-5.82s5.82,2.61,5.82,5.82l-.29,51.98c9.75,12.05,75.27,89.94,129.44,78.59,25.12-5.27,21.01-57.19,17.32-76.75v-.52l-10.07-103.71c-.31-3.21,2.04-6.08,5.25-6.39,3.22-.31,6.08,2.04,6.39,5.25l10.07,103.47c1.11,6,14.17,81.5-26.43,90.03-4.46.95-9,1.43-13.56,1.43h0Z"/>
      <path class="cls-9" d="M2936.32,520.89c47.04,20.87,99.98,28.41,144.37,18.66,98.09-21.54,75.24-152.84,67.88-235.94-12.05-136.13-111.83-165.91-207.67-139.71s-150.86,130.4-122.97,233.05c7.74,28.41,23.87,53.61,45.2,74.8"/>
      <path class="cls-8" d="M3039.94,549.59c-36.55-.37-72.63-8.3-105.98-23.28-2.94-1.3-4.27-4.74-2.97-7.68,1.3-2.94,4.74-4.27,7.68-2.97h0c47.12,20.93,98.44,27.59,140.79,18.31,84.41-18.51,73.9-122.8,65.52-206.65-.79-8.03-1.57-15.78-2.21-23.28-4.92-55.56-24.74-95.82-58.91-119.6-35.68-24.86-85.92-30.21-141.46-15.11-92.62,25.21-145.94,126.61-118.87,226.04,7.16,26.2,21.83,50.5,43.66,72.18,2.28,2.27,2.3,5.95.03,8.24-2.27,2.28-5.95,2.3-8.24.03-23.28-23.14-39.03-49.19-46.72-77.39-28.73-105.63,28.26-213.44,127.05-240.33,58.91-16.04,112.58-10.07,151.15,16.79,37.14,25.85,58.62,68.95,63.86,128.07.64,7.33,1.43,15.05,2.21,23.02,8.38,83.74,19.85,198.39-74.63,219.11-13.79,3.02-27.86,4.53-41.97,4.51h0Z"/>
      <path class="cls-8" d="M3090.55,431.62h-2.91c-3.22-.3-5.58-3.14-5.28-6.36s3.14-5.58,6.36-5.28c3.2.26,10.8-.29,12.34-3.7.23-2.74-7.48-12.11-15.92-19.09-2.42-2.11-2.67-5.79-.55-8.21,2.04-2.33,5.54-2.66,7.98-.75,7.45,6.14,24.22,21.68,19.09,32.89-4.16,9.34-15.66,10.51-21.1,10.51h0ZM3041.16,394.08c-2.86.04-5.32-1.99-5.82-4.8l-2.42-13.71c-.54-3.17,1.59-6.18,4.76-6.72,3.15-.54,6.15,1.56,6.71,4.71l2.42,13.71c.55,3.17-1.58,6.18-4.74,6.72-.3.05-.6.08-.9.09ZM3122.37,379.84c-2.86.04-5.32-1.99-5.82-4.8l-2.39-13.71c-.57-3.16,1.54-6.19,4.7-6.76,3.16-.57,6.19,1.54,6.76,4.7,0,.02,0,.03,0,.05l2.39,13.68c.56,3.17-1.55,6.19-4.71,6.75,0,0,0,0,0,0l-.93.09ZM3026.64,371.2c-.8,0-1.59-.15-2.33-.47-2.92-1.32-4.22-4.76-2.91-7.68,3.95-8.98,13.73-13.87,23.28-11.64,3.13.74,5.07,3.87,4.33,7-.72,3.04-3.71,4.98-6.78,4.38-4.13-1.02-8.4,1.08-10.1,4.98-.97,2.15-3.14,3.51-5.5,3.43ZM3102.66,321.86c-1.53.02-3-.57-4.1-1.63-2.27-2.27-2.28-5.96,0-8.23,0,0,0,0,0,0,7.06-6.81,17.97-7.61,25.96-1.92,2.57,1.93,3.1,5.57,1.18,8.15-1.82,2.44-5.21,3.06-7.78,1.43-3.45-2.48-8.17-2.18-11.26.73-1.09.98-2.52,1.51-3.99,1.48h0ZM3063.63,482.01c-3.22,0-5.82-2.61-5.82-5.82,0-1.39.5-2.73,1.4-3.78.67-.76,16.21-18.66,34.35-15.16,3.16.61,5.22,3.67,4.61,6.83s-3.67,5.22-6.83,4.61c-9.46-1.83-20.03,7.54-23.28,11.32-1.11,1.28-2.73,2.02-4.42,2.01h0Z"/>
      <path class="cls-8" d="M2897.11,350.59c-30.82,14.55-7.16,51.52-12.22,63.48-2.39,5.59-23.66-19.44-33.3-25.76-33.68,8.73,8.3,76.81,8.3,138.69-21.01,1.54-194.4-161.42-125.16-235.18-57.63-43.02-19.41-133.1,39.18-118.7-35.71-73.76,52.62-126.76,102.54-73.76-13.04-77.57,97.39-95.06,118.14-37.43-8.09-54.17,92.09-91.6,117.53-2.91,21.31,74.31,21.89,126.18,28.23,195.51-21.33-18.05-49.83,18.66-81.24,26.89-87.32,22.88-112.73-19.94-142.33,16.12-11.5,13.94,12.28,38.04-19.68,53.03h0Z"/>
      <path class="cls-8" d="M2859.89,532.71c-21.13,0-101.67-78.21-132.23-142.13-19.33-40.49-19.7-74.22-1.19-98.09-29.86-25.79-31.14-63.13-18.54-89.82,11.64-24.54,33.06-38.22,56.67-36.94-13.65-37.84,3.78-67.18,24.3-81.29,24.36-16.91,56.76-16.52,80.71.96.58-34.93,26.2-54.52,50.35-60.83,15.53-4.19,31.99-3.43,47.06,2.18,8.91,3.37,16.85,8.88,23.14,16.04,6-21.01,26.2-36.67,47.56-41.3,27.8-6.02,65.46,4.98,80.04,55.85,17.46,60.95,21.1,106.5,25.32,159.27.93,11.96,1.92,24.36,3.11,37.31.57,3.16-1.54,6.19-4.7,6.76-1.86.33-3.76-.25-5.11-1.58-9.58-8.12-21.6-1.34-40.43,10.42-11.26,7.04-22.91,14.32-35.6,17.64-43.66,11.47-72.56,6.87-93.61,3.52-21.71-3.49-32.63-5.24-45.67,10.68-2.68,3.26-2.3,7.83-1.46,15.05,1.4,12.02,3.32,28.49-20.17,39.53-15.57,7.31-14.06,20.93-10.25,39.32,1.75,8.41,3.23,15.66.9,21.16-.9,2.15-2.81,3.72-5.09,4.19-5.59,1.16-11.18-3.93-23.28-15.54-3.99-3.78-8.06-7.71-11.18-10.19-1.75.76-3.22,2.05-4.19,3.7-5.24,8.88.38,30.33,6.35,53.03,6.05,23.28,12.95,49.48,12.95,75.47,0,3.05-2.34,5.59-5.38,5.82l-.41-.2ZM2761.36,177.41c-20.96,0-36,15.4-43.05,30.36-11.23,23.78-9.46,57.54,19.79,79.4,1.33.98,2.17,2.49,2.33,4.13.15,1.66-.41,3.3-1.54,4.51-17.09,18.22-19.21,44.24-6.29,77.36,25.06,64.32,97.88,132.03,121.23,145.53-1.25-21.98-7.1-44.3-12.34-64.3-7.16-27.27-12.81-48.81-5.12-61.88,3.04-5.05,8.01-8.64,13.77-9.93,1.59-.41,3.29-.12,4.66.79,5.34,3.98,10.36,8.37,15.02,13.13,2.91,2.71,6.55,6.23,9.61,8.88-.35-2.5-.96-5.36-1.48-7.92-3.35-16.1-8.38-40.43,16.71-52.22,15.89-7.45,14.87-16.36,13.53-27.65-.9-7.74-1.92-16.53,4.05-23.78,17.26-21.07,34.58-18.31,56.5-14.79,20.03,3.17,47.44,7.57,88.83-3.29,10.94-2.91,21.86-9.66,32.37-16.24,14.55-9.17,29.75-18.57,43.66-15.02-.79-9.26-1.48-18.19-2.18-26.92-4.16-52.13-7.74-97.13-24.89-156.97-12.43-43.08-42.47-52.83-66.45-47.62-22.38,4.83-43.37,24.16-39.82,48.2.56,3.17-1.56,6.18-4.72,6.74-2.82.5-5.58-1.13-6.51-3.83-9.66-26.87-41.33-34.46-66.22-27.94-23.69,6.2-46.83,25.88-40.75,62.46.42,2.53-.87,5.04-3.17,6.17-2.29,1.13-5.06.64-6.81-1.22-19.6-22.01-52.53-25.97-76.78-9.23-29.51,20.37-27.24,53.9-16.3,76.46,1.24,2.97-.16,6.38-3.12,7.62-1.04.43-2.17.56-3.28.36-3.67-.91-7.43-1.36-11.21-1.37h0Z"/>
      <path class="cls-9" d="M2868.15,472.63c-33.73,42.76-86.27,15.48-99.95-34.93-7.95-29.11,13.19-62.61,43.66-61.88,14.09.75,27.76,5,39.79,12.37"/>
      <path class="cls-8" d="M2828.97,499.64c-3.51,0-7.01-.36-10.45-1.08-25.61-5.21-47.56-28.47-55.94-59.2-4.42-17.41-.55-35.89,10.48-50.06,9.17-12.22,23.61-19.34,38.89-19.18,15.09.78,29.74,5.32,42.64,13.19,2.76,1.65,3.67,5.22,2.02,7.99s-5.22,3.67-7.99,2.02c-11.16-6.89-23.87-10.89-36.96-11.64-11.61-.15-22.57,5.33-29.43,14.7-8.82,11.26-11.93,25.98-8.41,39.85,7.1,26.2,26.02,46.57,47.04,50.85,15.78,3.23,30.94-3.2,42.73-18.13,1.99-2.52,5.66-2.95,8.18-.96,2.52,1.99,2.95,5.66.96,8.18-12.11,15.43-27.39,23.49-43.75,23.49h0Z"/>
      <path class="cls-8" d="M2838.93,465.24c-.9,0-1.79-.21-2.59-.61-15.51-7.74-18.13-18.57-15.4-26.2,2.53-7.01,9.49-11.44,17.93-12.05-2.19-7.12-8.5-12.18-15.92-12.78-11.82-1.22-24.07,6.29-25.38,9.72-1.15,3.01-4.52,4.51-7.52,3.36s-4.51-4.52-3.36-7.52c3.9-10.19,22.44-18.69,37.46-17.14,8.73.9,24.25,6,28.12,29.83.52,3.17-1.63,6.17-4.81,6.68-.75.12-1.52.1-2.27-.08-7.1-1.66-12.17.79-13.3,3.9s1.51,7.74,9.63,11.79c2.88,1.43,4.05,4.93,2.61,7.81-.98,1.97-3,3.22-5.2,3.22v.06Z"/>
      <path class="cls-2" d="M1823.88,2963.78c-22.21,0-35.6-.67-37.84-.79l6.46-116.34-3.14,58.21,3.09-58.21c1.98,0,199.96,9.61,405.86-56.84,265.36-85.54,420-252.67,459.15-496.7,29.43-182.82,17.73-334.37,6.37-480.98-9.66-124.95-18.8-243.01-3.84-374.95,30.65-270.19,276.07-584.31,356.73-687.58,9.11-11.64,17.73-22.67,20.37-26.46l95.79,66.16c-4.57,6.61-12.02,16.15-24.39,32.02-75.68,96.84-305.85,391.51-332.77,629.01-13.71,120.94-5.01,233.61,4.22,352.88,11.88,153.39,24.13,311.99-7.51,508.46-46.42,287.57-233.64,491.72-541.67,590.07-172.37,55.04-335.36,62.03-406.88,62.03h0Z"/>
      <path class="cls-9" d="M3108.16,887.6c-10.59,14.12-35.74-2.12-50.15-13.39-5.44-5.04-9.81-8.38-10.54-8.91.64.58,4.69,4.34,10.54,8.91,13.48,12.34,33.5,34.93,20.37,49.68-13.13,14.76-54.37-23.28-58.42-27.16,3.9,3.9,41.33,42.17,24.1,59.49-11.64,11.82-47.06-18.13-55.3-25.47,7.68,7.13,37.37,36.7,18.92,52.54-10.94,9.37-31.23-8.24-54.08-25.5-11.29-8.5-23.28-9.52-46.57-12.02-120.53,96.31-176.97,166.52-271.12,236.34-87.93,65.23-182.41,68.46-223.89,2.77-53.24-84.41,39.93-206.28,39.93-206.28l17.67-25.47c11.64,8.38,38.71,32.77,59.46,44.33,164.33-100.27,401.87-239.66,484.88-198.94,52.19,25.61,110.34,67.53,94.19,89.07h0Z"/>
      <path class="cls-7" d="M3058.01,874.21c-5.82-4.57-9.9-8.32-10.54-8.91.73.52,5.09,3.87,10.54,8.91Z"/>
      <path class="cls-8" d="M2530.66,1002.89c-.8,0-1.59-.18-2.33-.49-29.72-12.95-85.75-66.94-88.13-69.13-1.83-1.76-2.3-4.51-1.16-6.78.49-.99,50.44-101.2,150.51-223.51,58.91-71.98,166.49-89.07,225.37-92.85,3.22-.2,5.98,2.24,6.19,5.46s-2.24,5.98-5.46,6.19c-56.99,3.67-160.99,20.03-217.1,88.6-88.28,107.93-137.09,198.21-147.13,217.51,12.25,11.64,57.57,53.41,81.5,63.86,2.96,1.26,4.33,4.68,3.07,7.64-.92,2.16-3.05,3.56-5.4,3.54l.09-.03Z"/>
      <path class="cls-8" d="M2503.71,1238.45c-8.33.03-16.64-.72-24.83-2.24-29.73-5.08-55.87-22.62-71.83-48.2-22.79-36.12-22.96-84.55-.47-140.06,10.61-25.8,24.29-50.24,40.75-72.77,1.95-2.56,5.61-3.04,8.16-1.09s3.04,5.61,1.09,8.16c-.9,1.16-90.23,119.74-39.67,199.61,14.25,22.79,37.54,38.43,64.03,42.99,44.47,8.3,99.63-8.94,151.35-47.3,48.05-35.66,87.09-72.18,128.42-110.87,39.24-36.7,83.68-78.32,142.62-125.39,1.21-.96,2.75-1.4,4.28-1.22l2.1.2c22.73,2.42,35.25,3.75,47.47,12.98l7.19,5.47c15.66,11.99,33.38,25.56,39.58,20.37,2.52-2,3.97-5.05,3.93-8.27,0-11.47-14.03-27.13-21.95-34.64-1.08-.96-2.01-1.8-2.91-2.56-2.34-2.15-2.52-5.78-.41-8.15,2.12-2.37,5.75-2.6,8.15-.52l2.91,2.56c18.37,16.27,41.24,29.95,46.31,24.8,1.99-1.95,3.05-4.66,2.91-7.45,0-14.55-19.65-36.73-27.16-44.07-2.31-2.23-2.38-5.92-.15-8.24,2.23-2.31,5.92-2.38,8.24-.15,12.11,11.64,35.6,29.75,46.92,29.25,1.29.06,2.54-.46,3.41-1.43,2.15-2.37,3.14-5.56,2.71-8.73-1.08-10.25-12.2-22.94-21.83-32.02-6.08-4.74-10.45-8.73-11.64-9.87-2.37-2.17-2.52-5.86-.35-8.23,2.04-2.22,5.44-2.52,7.83-.68,4.11,3.13,8.07,6.46,11.85,9.98,10.83,8.32,25.41,17.46,34.93,16.71,2.31-.1,4.46-1.24,5.82-3.11,1.62-2.17,2.07-5,1.22-7.57-4.25-17.73-43.48-48.35-93.34-72.77-86.04-42.2-353.52,121.63-513.32,219.52l-26.2,16.01c-2.71,1.72-6.31.92-8.03-1.8-1.72-2.71-.92-6.31,1.8-8.03.05-.03.1-.06.15-.09l26.2-16.01c172.31-105.54,432.72-265.07,524.52-220.04,33.79,16.56,92.76,52.16,99.54,80.51,1.64,5.95.45,12.33-3.23,17.29-3.36,4.52-8.53,7.35-14.15,7.74-5,.18-9.99-.68-14.64-2.53,2.36,4.22,3.9,8.85,4.54,13.65.77,6.42-1.24,12.86-5.53,17.7-2.97,3.33-7.19,5.27-11.64,5.36-6.49.29-14.2-2.65-21.8-6.87,3.02,5.67,4.75,11.95,5.06,18.37.21,5.88-2.04,11.58-6.2,15.75-7.39,7.45-19.41,4.51-31.35-1.8,1.62,3.85,2.5,7.96,2.59,12.14.02,6.6-2.92,12.86-8,17.06-13.33,11.47-32.28-3.06-54.22-19.82-2.36-1.8-4.72-3.64-7.13-5.44-9.61-7.25-20.37-8.41-41.42-10.65-57.75,46.02-101.41,86.97-140.15,123.15-41.56,38.92-80.83,75.68-129.41,111.71-45.2,33.53-93.31,51.63-135.64,51.63Z"/>
      <path class="cls-3" d="M3788.52,1835.24l116.42,23.55c9.52,1.93,15.68,11.21,13.75,20.74s-11.21,15.68-20.74,13.75h0l-116.42-23.55,6.99-34.49ZM3766.31,1945.09l116.42,23.55c9.52,1.92,15.67,11.19,13.75,20.71-1.92,9.52-11.19,15.67-20.71,13.75l-116.42-23.55,6.96-34.46Z"/>
      <path class="cls-1" d="M3673.06,1783.92l143.91,29.07-39.98,197.91-143.91-29.07c-29.83-6.03-49.12-35.09-43.1-64.92l18.15-89.87c6.01-29.83,35.06-49.14,64.89-43.13h.03Z"/>
      <path class="cls-9" d="M3411.27,470.04c-44.56-18.8-135.61-15.75-137.15,11.15-1.02,17.46,28.49,21.39,46.8,22.12,8.18-.38,14.09,0,14.09,0,0,0-5.82.32-14.09,0-18.31.76-47.91,5.09-47.56,24.74s54.49,17.32,61.79,16.97c-7.1.64-58.21,6-56.41,29.89,1.31,16.12,45.14,16.45,57.72,16.24-11.88.67-51.14,4.63-47.36,27.94,2.3,14.2,22,15.4,36.67,15.4s39.47,22.91,64.53,20.9c19.68,127.63,22.94,238.23,46.31,327.18l-21.1,31.61s-1.66,84.41,2.91,88.02c52.22,38.77,102.1,48.93,150.39,23.93,156.82-81.15-62.32-615.8-157.55-656.08h0Z"/>
      <path class="cls-7" d="M3335.02,503.28s-5.82.32-14.09,0c8.18-.35,14.09,0,14.09,0Z"/>
      <path class="cls-1" d="M3775.1,1784.08l45.82,9.26-47.91,237.2-45.82-9.26,47.91-237.2Z"/>
      <path class="cls-8" d="M3514.92,1145.66c-31.73,0-64.76-12.89-99.86-38.8-2.53-1.98-2.97-5.64-.99-8.17,1.9-2.42,5.36-2.95,7.89-1.2,52.59,38.8,99.81,46.57,144.31,23.46,37.02-19.18,54.31-66.68,51.4-141.17-3.26-84-34.03-200.63-82.31-311.99-44.1-101.87-94.89-179.09-126.35-192.39-36.15-15.25-106.47-15.19-125.42,0-3.87,3.11-3.96,5.65-3.61,7.51.03.23.03.47,0,.7.18.69.43,1.35.76,1.98.02.09.02.18,0,.26,3.7,6.61,20.11,10.54,37.46,11.64.86-.04,1.73-.04,2.59,0,3.17-.2,10.62-.2,14.35,0,3.21,0,5.82,2.61,5.82,5.82s-2.61,5.82-5.82,5.82c-.7,0-6.52.32-14.55,0h-.81c-6.78,0-32.28,2.74-38.71,12.66-.33.52-.62,1.07-.87,1.63-.94,1.9-1.12,4.09-.49,6.11,1.7,2.45,4.2,4.24,7.07,5.04,5.95,2.12,12.16,3.45,18.45,3.96,9.82.95,19.69,1.2,29.54.76h.55c3.21,0,5.82,2.61,5.82,5.82s-2.61,5.82-5.82,5.82c-10.44.48-20.89.22-31.29-.79-7.34-.65-14.57-2.23-21.51-4.72-5.81-1.71-10.67-5.71-13.45-11.09-1.99-4.89-1.88-10.38.29-15.19.52-1.35,1.2-2.63,2.04-3.81,3.96-5.4,9.47-9.47,15.8-11.64-7.13-2.62-13.1-6.4-16.18-11.85-4.96-8.57-2.62-19.51,5.41-25.29,24.1-19.41,100.15-17.46,137.24-1.72,73.84,31.23,208.58,328.9,215.79,514.63,3.09,79.4-16.33,130.54-57.69,151.99-17.52,9.27-37.03,14.15-56.84,14.2Z"/>
      <path class="cls-8" d="M3331.41,596.98c-4.66,0-9.9,0-14.06-.47-28.82-1.83-43.37-8.73-44.42-21.1-2.1-25.88,38.22-33.82,62.46-36.24,3.21-.31,6.08,2.04,6.39,5.25s-2.04,6.08-5.25,6.39c-24.65,2.47-53.09,10.16-51.98,23.69.26,3.09,7.65,8.73,33.65,10.45,6.72.58,16.68.44,20.67.35h.44c3.21,0,5.82,2.61,5.82,5.82s-2.61,5.82-5.82,5.82c-2.07,0-4.98.03-7.89.03h0Z"/>
      <path class="cls-8" d="M3445.07,1016.72c-2.5,0-4.73-1.59-5.53-3.96-20.37-60.89-28.09-131.18-36.96-212.48-4.8-44.07-9.78-89.59-17.26-138.87-14.55-.55-28.38-7.57-39.85-13.33-7.83-3.93-15.25-7.65-19.68-7.65-11.64,0-42.76,0-42.76-24.3,0-9.08,5.56-17.09,15.28-21.95,10.48-5.82,29.11-8.73,41.51-8.73,3.21,0,5.82,2.61,5.82,5.82s-2.61,5.82-5.82,5.82c-10.74,0-27.59,2.91-36.12,7.54-3.49,1.75-9.02,5.44-9.02,11.64,0,8.99,8.99,12.66,31.11,12.66,7.19,0,15.4,4.13,24.91,8.91,12.2,6.11,25.99,13.07,39.15,12.02,3.03-.23,5.72,1.89,6.2,4.89,7.95,51.49,13.1,98.73,18.1,144.4,8.73,80.74,16.42,150.48,36.41,210.15,1.03,3.04-.6,6.35-3.64,7.38,0,0-.02,0-.03,0-.61.11-1.22.12-1.83.03h0Z"/>
      <path class="cls-4" d="M3313.1,305.68c-1.58,0-3.1-.66-4.19-1.8l-47.65-49.89c-2.22-2.33-2.13-6.01.19-8.23.54-.52,1.18-.92,1.87-1.2l41.59-16.59-31.26-47.79c-1.76-2.69-1-6.3,1.69-8.06,2.69-1.76,6.3-1,8.06,1.69l35.16,53.76c.96,1.47,1.2,3.28.67,4.95-.53,1.66-1.78,3-3.41,3.64l-40.2,16.04,41.68,43.66c2.22,2.33,2.13,6.01-.2,8.23,0,0,0,0,0,0-1.08,1.03-2.52,1.6-4.02,1.6ZM3370.23,305.39h-.17c-3.21-.09-5.74-2.78-5.65-5.99,0,0,0,0,0,0l1.95-68.98c.06-1.93,1.07-3.71,2.71-4.74,1.63-1.04,3.67-1.2,5.44-.44l41.04,17.9,11.9-55.85c.55-3.17,3.56-5.29,6.73-4.75s5.29,3.56,4.75,6.73c-.03.15-.06.29-.09.43l-13.45,62.84c-.68,3.14-3.77,5.14-6.92,4.47-.38-.08-.76-.2-1.12-.36l-39.67-17.29-1.63,60.51c-.16,3.1-2.72,5.53-5.82,5.53h0Z"/>
      <path class="cls-8" d="M3324.71,2835.3c-24.89-.3-49.61-4.12-73.43-11.35-1.67-.48-3.04-1.69-3.73-3.29-18.98-44.3-71.86-412.2-101.7-647.56-75.91-151.91-121.72-267.78-122.25-268.85-1.18-3,.29-6.39,3.29-7.57,3-1.18,6.39.29,7.57,3.29.44,1.16,46.25,116.95,122.25,268.83.28.59.47,1.22.55,1.86,30.39,239.6,81.5,591.21,100.01,642.9,72.01,20.37,131.85,9.75,161.07-28.44-11.64-207.27-18.08-340.75-22.64-438.31-7.39-157.17-9.61-204.82-22.62-282.88-26.2-157.17-100.62-486.07-101.38-489.28-.61-3.16,1.45-6.21,4.61-6.82,3.02-.58,5.97,1.28,6.74,4.26.76,3.29,75.21,332.31,101.49,489.92,13.13,78.76,15.37,126.41,22.76,284.25,4.6,97.86,10.91,231.92,22.76,440.32.08,1.34-.3,2.66-1.08,3.75-21.54,29.57-58.45,44.97-104.29,44.97h0ZM2815.5,3027.11h-10.3c-77.22-1.16-119.34-15.34-128.45-43.34-13.27-40.43,52.25-90.87,55.04-92.99,2.56-1.95,6.21-1.46,8.16,1.09s1.46,6.21-1.09,8.16h0c-17.23,13.1-59.93,53.06-51.02,80.1,5.06,15.4,29.54,34.03,117.53,35.34,91.13,1.4,116.42-15.8,121.49-30.5,8.24-23.69-29.46-59.26-44.71-70.96-2.55-1.96-3.02-5.62-1.06-8.16s5.62-3.02,8.16-1.06h0c2.5,1.92,61.3,47.56,48.61,84-8.99,25.73-49.04,38.33-122.36,38.33h0Z"/>
      <path class="cls-8" d="M3433.02,2977.63c-46.57,0-90.58-1.86-113.95-2.91-39.64-2.04-64.47-12.66-73.84-31.58-14.55-29.11,12.2-68.11,25-86.79,2.04-2.91,4.34-6.32,4.98-7.57.34-3.21,3.22-5.55,6.43-5.21,3.21.34,5.55,3.22,5.21,6.43,0,2.91-1.75,5.41-6.9,12.92-11.64,16.85-35.6,51.95-24.16,75.04,7.33,14.87,28.87,23.28,64.03,25.12,149.43,7.68,263.3.52,276.92-17.46.7-.8.91-1.91.55-2.91-7.07-21.19-115.55-77.77-182.26-108.45-2.93-1.34-4.21-4.8-2.87-7.73,1.34-2.93,4.8-4.21,7.73-2.87,18.13,8.35,177.55,82.46,188.43,115.38,1.65,4.65.77,9.81-2.33,13.65-15.54,20.11-97.86,24.94-172.98,24.94h0Z"/>
      <path class="cls-7" d="M3029.28,1921.08h-.84c-3.17-.46-5.37-3.41-4.92-6.58,10.22-71.6,13.74-87.32,22.3-125.33,1.22-5.38,2.53-11.23,3.96-17.73.69-3.14,3.8-5.13,6.94-4.44,3.14.69,5.13,3.8,4.44,6.94h0c-1.46,6.52-2.77,12.37-3.99,17.75-8.47,37.84-11.96,53.29-22.12,124.43-.43,2.85-2.88,4.95-5.76,4.95h0Z"/>
      <path class="cls-8" d="M3415.49,1020.01c-1.1,0-2.18-.31-3.11-.9-2.71-1.72-3.52-5.32-1.79-8.03,0,0,.01-.02.02-.03l20.9-32.54c1.88-2.61,5.52-3.2,8.13-1.32,2.42,1.74,3.13,5.02,1.65,7.61l-20.87,32.54c-1.07,1.67-2.93,2.68-4.92,2.68h0Z"/>
    </g>
  </g>
</svg>