<?xml version="1.0" encoding="UTF-8"?>
<svg id="Layer_2" data-name="Layer 2" xmlns="http://www.w3.org/2000/svg" xmlns:xlink="http://www.w3.org/1999/xlink" viewBox="0 0 2888.27 2244.07">
  <defs>
    <style>
      .cls-1, .cls-2, .cls-3, .cls-4, .cls-5 {
        fill: none;
      }

      .cls-2, .cls-6, .cls-7, .cls-8, .cls-9, .cls-10, .cls-11, .cls-3, .cls-4, .cls-12, .cls-5, .cls-13, .cls-14, .cls-15, .cls-16 {
        stroke-width: 5px;
      }

      .cls-2, .cls-7, .cls-8, .cls-9, .cls-10, .cls-12, .cls-5, .cls-13, .cls-14, .cls-15 {
        stroke: #000;
      }

      .cls-2, .cls-7, .cls-8, .cls-9, .cls-10, .cls-12, .cls-13, .cls-14, .cls-15 {
        stroke-linecap: round;
        stroke-linejoin: round;
      }

      .cls-17 {
        opacity: .41;
      }

      .cls-17, .cls-15 {
        isolation: isolate;
      }

      .cls-18, .cls-9 {
        fill: #8bc149;
      }

      .cls-19 {
        fill: #3e404c;
      }

      .cls-6, .cls-11, .cls-3, .cls-4, .cls-16 {
        stroke: #020000;
      }

      .cls-6, .cls-20, .cls-12 {
        fill: #1a7aed;
      }

      .cls-6, .cls-3, .cls-5 {
        stroke-miterlimit: 10;
      }

      .cls-21 {
        fill: #fcb006;
      }

      .cls-22 {
        fill: #fdd504;
      }

      .cls-23, .cls-14 {
        fill: #485065;
      }

      .cls-24 {
        fill: #231f20;
      }

      .cls-25 {
        fill: #190000;
      }

      .cls-7 {
        fill: #020000;
      }

      .cls-26 {
        fill: #0fa379;
      }

      .cls-8, .cls-11, .cls-27, .cls-15, .cls-16 {
        fill: #fff;
      }

      .cls-28 {
        fill: #0c66bf;
      }

      .cls-29, .cls-13 {
        fill: #faccc4;
      }

      .cls-30 {
        clip-path: url(#clippath-11);
      }

      .cls-31 {
        clip-path: url(#clippath-10);
      }

      .cls-32 {
        clip-path: url(#clippath-13);
      }

      .cls-33 {
        clip-path: url(#clippath-12);
      }

      .cls-10 {
        fill: #1b80fd;
      }

      .cls-34 {
        clip-path: url(#clippath-1);
      }

      .cls-35 {
        clip-path: url(#clippath-3);
      }

      .cls-36 {
        clip-path: url(#clippath-4);
      }

      .cls-37 {
        clip-path: url(#clippath-2);
      }

      .cls-38 {
        clip-path: url(#clippath-7);
      }

      .cls-39 {
        clip-path: url(#clippath-6);
      }

      .cls-40 {
        clip-path: url(#clippath-9);
      }

      .cls-41 {
        clip-path: url(#clippath-8);
      }

      .cls-42 {
        clip-path: url(#clippath-5);
      }

      .cls-11, .cls-4 {
        stroke-miterlimit: 10;
      }

      .cls-43 {
        fill: #d6dcf2;
      }

      .cls-44 {
        fill: #7cad42;
      }

      .cls-45 {
        fill: #ed707b;
      }

      .cls-46 {
        opacity: .69;
      }

      .cls-47 {
        opacity: .3;
      }

      .cls-15 {
        opacity: .14;
      }

      .cls-48 {
        clip-path: url(#clippath);
      }

      .cls-16 {
        opacity: .8;
        stroke-miterlimit: 10;
      }
    </style>
    <clipPath id="clippath">
      <rect class="cls-1" x="2.45" y="156.86" width="2883.32" height="2000.44" rx="65.13" ry="65.13"/>
    </clipPath>
    <clipPath id="clippath-1">
      <path class="cls-1" d="M2188.5,2003.27c57.52,114.69-106.16,176.71-106.16,176.71l-300.78-43.79-174-599.54,153.34-79.74c103.2-20.67,107.85,336.51,143.24,513.71l284.36,32.65Z"/>
    </clipPath>
    <clipPath id="clippath-2">
      <path class="cls-1" d="M1810.66,1630.28c27.11,182.1,55.77,452.3.43,521.11,0,0-633.76,38.15-678.12,24.76-44.36-13.39-20.77-494.8-20.77-494.8,0,0,24.77-231.09,76.67-253.25,27.24-11.64,349.41-133.1,592.69,29.83l29.1,172.35Z"/>
    </clipPath>
    <clipPath id="clippath-3">
      <path class="cls-1" d="M1810.66,1630.28c27.11,182.1,55.77,452.3.43,521.11,0,0-633.76,38.15-678.12,24.76-44.36-13.39-20.77-494.8-20.77-494.8,0,0,24.77-231.09,76.67-253.25,27.24-11.64,349.41-133.1,592.69,29.83l29.1,172.35Z"/>
    </clipPath>
    <clipPath id="clippath-4">
      <path class="cls-1" d="M1810.66,1630.28c27.11,182.1,55.77,452.3.43,521.11,0,0-633.76,38.15-678.12,24.76-44.36-13.39-20.77-494.8-20.77-494.8,0,0,24.77-231.09,76.67-253.25,27.24-11.64,349.41-133.1,592.69,29.83l29.1,172.35Z"/>
    </clipPath>
    <clipPath id="clippath-5">
      <polygon class="cls-1" points="1523.35 2138.19 1506.15 2120.52 2199.25 2065.98 2068.3 2176.16 2034.72 2232.72 1523.35 2138.19"/>
    </clipPath>
    <clipPath id="clippath-6">
      <path class="cls-1" d="M2218.55,1690.57l-183.83,550.95,526.44-28.07,155.34-467.76c2.61-7.82-1.62-16.28-9.44-18.88-.97-.32-1.98-.55-3-.67l-453.56-52.38c-14.42-1.76-28.17,5.43-31.95,16.81Z"/>
    </clipPath>
    <clipPath id="clippath-7">
      <polygon class="cls-1" points="1568.39 1411.56 1626.36 1216.52 1444.09 1223.34 1401.95 1398.77 1452.93 1433.1 1549.25 1471.94 1579.11 1442.78 1568.39 1411.56"/>
    </clipPath>
    <clipPath id="clippath-8">
      <polygon class="cls-1" points="1780.25 1614.11 1729.77 1592.75 1659.69 1757.81 1710.17 1779.16 1780.25 1614.11"/>
    </clipPath>
    <clipPath id="clippath-9">
      <path class="cls-1" d="M1744.03,1695.52l-48.76-20.63c-5.05-2.14-10.87.22-13.01,5.25l-73.52,173.14c-5.73,13.49.58,29.06,14.1,34.78l18.09,7.66c13.51,5.72,29.11-.58,34.84-14.07l73.52-173.14c2.14-5.04-.22-10.85-5.26-12.99Z"/>
    </clipPath>
    <clipPath id="clippath-10">
      <path class="cls-1" d="M1854.9,1698.9c-9.56,5.06-20.2,5.06-26.48,0l-134.35-108.4c-5.86,4.3-10.47,10-12.52,16.36l-61,188.13c-4.3,13.29,4.28,24.06,19.17,24.06h326c14.9,0,30.47-10.77,34.78-24.06l61-188.13c2.05-6.33,1.15-12.06-1.92-16.36l-204.68,108.4Z"/>
    </clipPath>
    <clipPath id="clippath-11">
      <path class="cls-1" d="M1356.61,1911.37l148.64-61.3s45.46-120.85,61.79-126.69c11.92-4.27,58.68-21.62,83-30.66,9.43-3.5,19.92-2.75,28.75,2.07,25.71,13.94,79.08,42,88.74,40.27,0,0,12.56,42.88-50.13,19.85,0,0-2.33,21-11.66,33.86,0,0-1.16,29.19-9.32,36.19,0,0-12.83,31.53-33.81,42,0,0-91.51,65.39-100.55,75.9-9.04,10.51-205.47,88.74-205.47,88.74l.02-120.23Z"/>
    </clipPath>
    <clipPath id="clippath-12">
      <path class="cls-1" d="M1265.27,740.04H128.56c-32.07,0-58.07,26.01-58.06,58.08,0,.02,0,.05,0,.07v521.11c-.02,32.06,25.94,58.07,58,58.11h743.08c29.94,37.87,64.11,81,88.94,112.35,11.48,14.48,34.61,6.17,34.61-12.32v-100h270.08c32.06-.03,58.03-26.05,58-58.11v-521.14c.05-32.05-25.89-58.08-57.94-58.15Z"/>
    </clipPath>
    <clipPath id="clippath-13">
      <path class="cls-1" d="M2810.26,438.97c0,241.06-195.11,436.48-435.79,436.48-46.22-.05-92.13-7.47-136-22l-274.45,84.83c-30.59,9.46-58-21.76-44.65-50.93l93.5-204.78c-48.48-71.98-74.31-156.82-74.18-243.6,0-241.06,195.11-436.47,435.78-436.47s435.79,195.47,435.79,436.47Z"/>
    </clipPath>
  </defs>
  <g id="Layer_1-2" data-name="Layer 1">
    <path class="cls-27" d="M2820.64,2157.3H67.58c-35.94-.03-65.07-29.17-65.08-65.11V221.99c0-35.97,29.16-65.13,65.13-65.13h2753.01c35.97,0,65.13,29.16,65.13,65.13v1870.2c-.01,35.96-29.17,65.11-65.13,65.11Z"/>
    <g class="cls-48">
      <rect class="cls-12" x="-290.11" y="96.87" width="1179.47" height="2238.09"/>
    </g>
    <path class="cls-2" d="M2820.64,2157.3H67.58c-35.94-.03-65.07-29.17-65.08-65.11V221.99c0-35.97,29.16-65.13,65.13-65.13h2753.01c35.97,0,65.13,29.16,65.13,65.13v1870.2c-.01,35.96-29.17,65.11-65.13,65.11Z"/>
    <path class="cls-28" d="M784.9,798.29h-493.7c-11.89,0-21.52-9.63-21.53-21.52v-87.53c0-11.89,9.64-21.53,21.53-21.53h493.7c11.89,0,21.52,9.63,21.52,21.52h0v87.54c0,11.89-9.63,21.52-21.52,21.52h0Z"/>
    <path class="cls-43" d="M2072.27,733H1013.38c-17.18,0-31.11-13.93-31.11-31.11v-68.36c0-17.18,13.93-31.11,31.11-31.11h1058.89c17.18,0,31.11,13.93,31.11,31.11h0v68.36c0,17.18-13.93,31.11-31.11,31.11h0Z"/>
    <path class="cls-10" d="M1615,961.19h-608.92c-13.15,0-23.81-10.66-23.81-23.81h0v-83c0-13.14,10.66-23.8,23.8-23.8h608.93c13.14,0,23.8,10.65,23.81,23.79h0v83.01c0,13.15-10.66,23.81-23.81,23.81h0Z"/>
    <path class="cls-43" d="M1797.11,1189.31h-787.88c-14.91,0-27-12.09-27-27h0v-76.62c0-14.91,12.09-27,27-27h787.88c14.91,0,27,12.09,27,27v76.66c-.02,14.9-12.1,26.96-27,26.96ZM1615,1417.46h-608.92c-13.15,0-23.8-10.65-23.81-23.8v-83c0-13.15,10.66-23.81,23.81-23.81h608.92c13.15,0,23.81,10.66,23.81,23.81h0v83c0,13.15-10.66,23.8-23.81,23.8Z"/>
    <path class="cls-12" d="M2072.27,1645.62H1013.38c-17.18,0-31.11-13.93-31.11-31.11v-68.32c0-17.18,13.92-31.1,31.1-31.1h1058.9c17.18,0,31.1,13.91,31.11,31.09h0v68.38c-.03,17.16-13.95,31.06-31.11,31.06Z"/>
    <path class="cls-43" d="M1797.11,1873.77h-787.88c-14.91,0-27-12.09-27-27h0v-76.58c0-14.91,12.09-27,27-27h787.88c14.91,0,27,12.09,27,27h0v76.66c-.04,14.88-12.12,26.92-27,26.92ZM2072.27,2101.92H1013.38c-17.18,0-31.11-13.93-31.11-31.11h0v-68.36c0-17.18,13.93-31.11,31.11-31.11h1058.89c17.18,0,31.11,13.93,31.11,31.11h0v68.36c0,17.18-13.93,31.11-31.11,31.11h0Z"/>
    <path class="cls-28" d="M764.1,1640.19h-452.1c-23.38,0-42.33-18.95-42.33-42.33v-420.29c0-23.38,18.95-42.33,42.33-42.33h452.1c23.37,0,42.32,18.96,42.32,42.33v420.25c.02,23.38-18.91,42.35-42.29,42.37h-.03Z"/>
    <path class="cls-28" d="M606.94,558.33h-326.68c-5.85,0-10.59-4.74-10.59-10.59h0v-6.55c0-5.85,4.74-10.59,10.59-10.59h326.68c5.84.02,10.56,4.75,10.56,10.59v6.51c.02,5.85-4.7,10.61-10.55,10.63,0,0,0,0-.01,0ZM606.94,1055.24h-326.68c-5.84,0-10.58-4.74-10.59-10.58v-6.47c0-5.84,4.75-10.58,10.59-10.58h326.68c5.83.02,10.55,4.75,10.56,10.58v6.52c-.03,5.81-4.75,10.51-10.56,10.53Z"/>
    <g class="cls-46">
      <path class="cls-28" d="M168.71,325.97h-75.66c-11.87,0-21.49-9.62-21.49-21.49v-75.85c.03-11.85,9.64-21.44,21.49-21.44h75.66c11.87,0,21.49,9.62,21.49,21.49v75.85c-.03,11.85-9.64,21.44-21.49,21.44Z"/>
      <path class="cls-15" d="M789.02,309.24h-501.94c-9.62,0-17.41-7.79-17.41-17.41v-50.56c0-9.61,7.8-17.4,17.41-17.4h501.94c9.61,0,17.4,7.79,17.4,17.4h0v50.56c0,9.61-7.78,17.4-17.39,17.41h-.01Z"/>
      <ellipse class="cls-8" cx="2429.73" cy="266.55" rx="36.86" ry="36.92"/>
      <path class="cls-8" d="M2759.03,286.66h-256.24c-6.42,0-11.63-5.21-11.63-11.63v-17c0-6.42,5.21-11.63,11.63-11.63h256.24c6.42,0,11.63,5.2,11.64,11.62h0v17.01c0,6.42-5.22,11.63-11.64,11.63Z"/>
    </g>
    <path class="cls-43" d="M2704.86,1029.54h-418.19c-36.34,0-65.8-29.45-65.81-65.79v-339.56c0-36.34,29.45-65.8,65.79-65.81h418.21c36.34,0,65.8,29.45,65.81,65.79v339.61c-.02,36.33-29.48,65.77-65.81,65.76ZM2704.86,1569.46h-418.19c-36.35,0-65.81-29.46-65.81-65.81h0v-339.6c0-36.34,29.46-65.8,65.8-65.8h418.2c36.34,0,65.8,29.45,65.81,65.79h0v339.61c0,36.35-29.46,65.81-65.81,65.81ZM2704.86,2109.37h-418.19c-36.34,0-65.8-29.45-65.81-65.79h0v-339.61c0-36.35,29.46-65.81,65.81-65.81h418.19c36.35,0,65.81,29.46,65.81,65.81h0v339.6c0,36.34-29.46,65.8-65.8,65.8h0Z"/>
    <path class="cls-8" d="M1174.56,465.63h-192.61c-12.94-.02-23.42-10.5-23.45-23.44v-45c0-12.97,10.51-23.48,23.48-23.48h192.61c12.96.02,23.45,10.52,23.45,23.48v45c-.03,12.95-10.53,23.43-23.48,23.44ZM1454.84,465.63h-192.61c-12.95,0-23.46-10.49-23.49-23.44v-45c0-12.97,10.52-23.48,23.49-23.48h192.61c12.97,0,23.48,10.51,23.48,23.48v45c-.03,12.95-10.53,23.43-23.48,23.44ZM1735.11,465.63h-192.61c-12.95,0-23.45-10.49-23.48-23.44v-45c.02-12.95,10.53-23.44,23.48-23.44h192.61c12.95,0,23.46,10.49,23.49,23.44v45c-.03,12.95-10.54,23.44-23.49,23.44Z"/>
    <path class="cls-17" d="M317.01,244.29c9.71.01,17.58,7.9,17.57,17.61,0,3.67-1.16,7.24-3.3,10.23l12.87,11.87-4.47,4.81-13-12.22c-8.13,5.31-19.02,3.02-24.33-5.11-5.31-8.13-3.02-19.02,5.11-24.33,2.85-1.86,6.18-2.85,9.58-2.86h-.03ZM317.01,250.69c-6.19-.02-11.21,4.98-11.23,11.17-.02,6.19,4.98,11.21,11.17,11.23,6.19.02,11.21-4.98,11.23-11.17,0-.01,0-.03,0-.04,0-6.17-5-11.18-11.17-11.19Z"/>
    <path class="cls-28" d="M151.88,509.61h-42c-6.59,0-11.93-5.34-11.93-11.93v-42.1c0-6.59,5.34-11.93,11.93-11.93h42c6.59,0,11.93,5.34,11.93,11.93v42.1c0,6.59-5.34,11.93-11.93,11.93ZM151.88,647.83h-42c-6.58,0-11.92-5.34-11.93-11.92v-42.11c0-6.58,5.35-11.92,11.93-11.92h42c6.58,0,11.92,5.34,11.93,11.92v42.11c0,6.58-5.35,11.92-11.93,11.92ZM151.88,786.06h-42c-6.59,0-11.93-5.34-11.93-11.93h0v-42.1c0-6.59,5.34-11.93,11.93-11.93h42c6.59,0,11.93,5.34,11.93,11.93v42.1c0,6.59-5.34,11.93-11.93,11.93h0ZM151.88,924.29h-42c-6.59,0-11.93-5.34-11.93-11.93h0v-42.1c0-6.59,5.34-11.93,11.93-11.93h42c6.59,0,11.93,5.34,11.93,11.93h0v42.1c0,6.59-5.34,11.93-11.93,11.93h0ZM151.88,1062.52h-42c-6.59,0-11.93-5.34-11.93-11.93h0v-42.1c0-6.59,5.34-11.93,11.93-11.93h42c6.59,0,11.93,5.34,11.93,11.93h0v42.1c0,6.59-5.34,11.93-11.93,11.93h0ZM151.88,1200.74h-42c-6.58,0-11.92-5.34-11.93-11.92v-42.11c0-6.58,5.35-11.92,11.93-11.92h42c6.58,0,11.92,5.34,11.93,11.92v42.11c0,6.58-5.35,11.92-11.93,11.92Z"/>
    <path class="cls-5" d="M365.93,1857.38l-106.15,67.81M2195.16,450.19l-70.19,48.46"/>
    <path class="cls-18" d="M2188.5,2003.27c57.52,114.69-106.16,176.71-106.16,176.71l-300.78-43.79-174-599.54,153.34-79.74c103.2-20.67,107.85,336.51,143.24,513.71l284.36,32.65Z"/>
    <g class="cls-34">
      <path class="cls-26" d="M1740.4,1627.88c117.08-73,98.89,10.08,120.8,292.12,13.61,175.27,114.44,280,110.57,322-3.87,42-190.21-105.81-190.21-105.81l-219.48-193.27"/>
    </g>
    <path class="cls-2" d="M2188.5,2003.27c57.52,114.69-106.16,176.71-106.16,176.71l-300.78-43.79-174-599.54,153.34-79.74c103.2-20.67,107.85,336.51,143.24,513.71l284.36,32.65Z"/>
    <path class="cls-18" d="M1810.66,1630.28c27.11,182.1,55.77,452.3.43,521.11,0,0-633.76,38.15-678.12,24.76-44.36-13.39-20.77-494.8-20.77-494.8,0,0,24.77-231.09,76.67-253.25,27.24-11.64,349.41-133.1,592.69,29.83"/>
    <g class="cls-37">
      <path class="cls-44" d="M1175.62,1642.74c107.66-62.08-63.39,324.91,160.29,250.9h0l20.7,163.53,19.78,47.26s-211.82,99.49-218.46,103.92c-6.64,4.43-244.5,17.9-244.5,17.9l97-496.13,72.44-184"/>
    </g>
    <g class="cls-35">
      <path class="cls-44" d="M1444.32,2012.32c30,5.15-81.07,82.33,180.91,82.33s232.24-33.12,227.47,23.31-152.2,105.47-181.7,114.76-424.61,0-424.61,0l-74.94-51.7v-142.12"/>
    </g>
    <g class="cls-36">
      <path class="cls-9" d="M1514.16,1457.79c32.48,126.65-8,662.73-8,662.73l58.79,11.49s19.83-596.3-2.35-676h0"/>
    </g>
    <path class="cls-2" d="M1810.66,1630.28c27.11,182.1,55.77,452.3.43,521.11,0,0-633.76,38.15-678.12,24.76-44.36-13.39-20.77-494.8-20.77-494.8,0,0,24.77-231.09,76.67-253.25,27.24-11.64,349.41-133.1,592.69,29.83"/>
    <path class="cls-9" d="M1188.87,1428.1c-132.69,8.86-304,630.77-265.38,688.87,38.62,58.1,209.48-90.78,209.48-90.78,0,0,48.35-234.59,65-411.73"/>
    <polygon class="cls-23" points="1523.35 2138.19 1506.15 2120.52 2199.25 2065.98 2068.3 2176.16 2034.72 2232.72 1523.35 2138.19"/>
    <g class="cls-42">
      <path class="cls-14" d="M2055.81,2203.92l-256-48.64c-2.29-.44-3.8-2.66-3.35-4.95.36-1.87,1.92-3.26,3.81-3.42,90.68-7,345.06-26.78,349.91-28.95,5.89-2.64,28,49,28,49"/>
    </g>
    <polygon class="cls-2" points="1523.35 2138.19 1506.15 2120.52 2199.25 2065.98 2068.3 2176.16 2034.72 2232.72 1523.35 2138.19"/>
    <path class="cls-14" d="M1506.15,2120.52v14.27c0,9.58,6.91,17.77,16.35,19.4l514,87.3,3.7-16.58-534.05-104.39Z"/>
    <path class="cls-14" d="M2681.5,1723.61l-442.89-54.3c-14.4-1.77-28.15,5.47-31.93,16.81l-183.83,551,11.9,4.45,8.39-5.53,506.15-27,155.5-456.49c4.5-13.36-6.39-26.87-23.29-28.94Z"/>
    <path class="cls-23" d="M2218.55,1690.57l-183.83,550.95,526.44-28.07,155.34-467.76c2.61-7.82-1.62-16.28-9.44-18.88-.97-.32-1.98-.55-3-.67l-453.56-52.38c-14.42-1.76-28.17,5.43-31.95,16.81Z"/>
    <g class="cls-39">
      <path class="cls-19" d="M1959.98,2265.94c592.68,17.72,654.56-183.11,654.56-183.11l7.47,180.16-203.71,71.65-217.57,11.19"/>
    </g>
    <path class="cls-2" d="M2218.55,1690.57l-183.83,550.95,526.44-28.07,155.34-467.76c2.61-7.82-1.62-16.28-9.44-18.88-.97-.32-1.98-.55-3-.67l-453.56-52.38c-14.42-1.76-28.17,5.43-31.95,16.81Z"/>
    <path class="cls-14" d="M1630.34,951.9c-18.56-9.18-39.74-11.57-60.15-8.19l-176.22,29.11c-74.68,12.34-113.51,96.13-74.72,161.23l95.85,160.87,3,10.73,1.17-3.79,27.82,46.7s123.45,24.28,225.35-174c72.15-140.47,3.87-199.93-42.1-222.66Z"/>
    <path class="cls-13" d="M1531.6,1309.45c48.26,5,156.88-5.64,170.34-40.63,28.66-74.49-44.68-249.47-112.12-274,42.64,117.73-57.65,185.45-112.68,212.68l9,32.35"/>
    <path class="cls-13" d="M1521.02,1190.49c-103.84-74.59-134.56,62.6-20.63,61.39"/>
    <path class="cls-2" d="M1502.13,987.84c4.8,13.45,3.74,28.31-2.93,40.94"/>
    <path class="cls-25" d="M1638.82,1136.62h0c-5.76,3.42-13.19,1.52-16.61-4.24,0,0,0,0,0,0l-10.45-17.63c-3.42-5.77-1.52-13.21,4.24-16.64h0c5.76-3.42,13.19-1.52,16.61,4.24,0,0,0,0,0,0l10.45,17.63c3.41,5.77,1.52,13.21-4.24,16.64ZM1604.57,1057.67c-32.31,17.32-31.57,34.56-10.67,25,20.9-9.56,31.79-36.32,10.67-25Z"/>
    <path class="cls-13" d="M1656.12,1101.66c53,1.82,62.75,50.72,30.44,56.92"/>
    <ellipse class="cls-45" cx="1604.45" cy="1164.79" rx="27.61" ry="20.38" transform="translate(-311.84 656.02) rotate(-21.11)"/>
    <path class="cls-13" d="M1629.5,1184.29c25.16,12.89,45-1.76,45-1.76"/>
    <path class="cls-2" d="M1480.86,1201.05c-5.38-4.3-14.51-2.34-17.65,3.8-3.14,6.14.6,14.71,7.23,16.56"/>
    <path class="cls-7" d="M1630.34,951.9c-18.56-9.18-39.74-11.57-60.15-8.19l-176.22,29.11c-74.68,12.34-113.51,96.13-74.72,161.23l95.85,160.87,3,10.73,1.17-3.79,27.82,46.7s123.45,24.28,225.35-174c72.15-140.47,3.87-199.93-42.1-222.66Z"/>
    <polyline class="cls-29" points="1568.39 1411.56 1626.36 1216.52 1444.09 1223.34 1401.95 1398.77 1452.93 1433.1 1549.25 1471.94 1579.11 1442.78"/>
    <g class="cls-38">
      <path class="cls-45" d="M1521.02,1288.46c66,46.64,58.7,89.94,64.55,136.91s77.49-80.46,77.49-80.46l-12.71-90.23-104.27-24.92"/>
    </g>
    <polyline class="cls-2" points="1568.39 1411.56 1626.36 1216.52 1444.09 1223.34 1401.95 1398.77 1452.93 1433.1 1549.25 1471.94 1579.11 1442.78"/>
    <path class="cls-13" d="M1531.6,1309.45c48.26,5,156.88-5.64,170.34-40.63,28.66-74.49-44.68-249.47-112.12-274,42.64,117.73-57.65,185.45-112.68,212.68l9,32.35"/>
    <path class="cls-13" d="M1521.02,1190.49c-103.84-74.59-134.56,62.6-20.63,61.39"/>
    <path class="cls-2" d="M1502.13,987.84c4.8,13.45,3.74,28.31-2.93,40.94"/>
    <path class="cls-25" d="M1638.82,1136.62h0c-5.76,3.42-13.19,1.52-16.61-4.24,0,0,0,0,0,0l-10.45-17.63c-3.42-5.77-1.52-13.21,4.24-16.64h0c5.76-3.42,13.19-1.52,16.61,4.24,0,0,0,0,0,0l10.45,17.63c3.41,5.77,1.52,13.21-4.24,16.64ZM1604.57,1057.67c-32.31,17.32-31.57,34.56-10.67,25,20.9-9.56,31.79-36.32,10.67-25Z"/>
    <path class="cls-13" d="M1656.12,1101.66c53,1.82,62.75,50.72,30.44,56.92"/>
    <ellipse class="cls-45" cx="1604.45" cy="1164.79" rx="27.61" ry="20.38" transform="translate(-311.84 656.02) rotate(-21.11)"/>
    <path class="cls-13" d="M1674.5,1187.84c-25.16-12.89-45,1.76-45,1.76"/>
    <path class="cls-2" d="M1480.86,1201.05c-5.38-4.3-14.51-2.34-17.65,3.8-3.14,6.14.6,14.71,7.23,16.56"/>
    <path class="cls-8" d="M1509.82,1502.75c23.11-30.88,39.43-30.81,39.43-30.81l-135.5-137.75s-55.75,32.54-57.14,52.33c0,.01,146.59,125.08,153.21,116.23ZM1570.32,1497.3s-7-23.3-21.07-25.36l35.09-116.75c27,4.65,35.1,42.7,35.1,42.7l-49.12,99.41Z"/>
    <g>
      <polygon class="cls-20" points="1780.25 1614.11 1729.77 1592.75 1659.69 1757.81 1710.17 1779.16 1780.25 1614.11"/>
      <g class="cls-41">
        <path class="cls-28" d="M1690.91,1577.52c60.49,104.53,63.95,49.65,58.39,130.99-5.57,81.33,123.76-78.46,123.76-78.46l-106.76-53.2-24.46-13.38"/>
      </g>
      <polygon class="cls-4" points="1780.25 1614.11 1729.77 1592.75 1659.69 1757.81 1710.17 1779.16 1780.25 1614.11"/>
      <path class="cls-6" d="M1647.25,1377.16c-40.45,95.26,4.13,205.22,99.56,245.6,95.43,40.38,205.59-4.12,246.04-99.38,40.45-95.26-4.12-205.22-99.56-245.6-95.43-40.38-205.59,4.12-246.04,99.38ZM1766.3,1576.85s0,0,0,0c-70.03-29.63-102.74-110.32-73.06-180.23,29.68-69.91,110.52-102.56,180.55-72.93,70.03,29.63,102.74,110.32,73.06,180.23-29.68,69.91-110.52,102.56-180.55,72.93h0Z"/>
      <path class="cls-20" d="M1744.03,1695.52l-48.76-20.63c-5.05-2.13-10.87.22-13.01,5.25l-73.52,173.14c-5.73,13.49.58,29.06,14.1,34.78h0l18.09,7.66c13.51,5.72,29.11-.58,34.84-14.07h0l73.52-173.14c2.14-5.04-.22-10.85-5.26-12.99Z"/>
      <g class="cls-40">
        <g>
          <polygon class="cls-11" points="1735.31 1784.22 1605.22 1729.17 1580.8 1786.67 1710.9 1841.71 1735.31 1784.22"/>
          <path class="cls-28" d="M1618.02,1787.91c-10.52,130.63,82.86,94.33,82.86,94.33l-23.42,74.42-109.3,6.25,38.98-165.09"/>
        </g>
      </g>
      <path class="cls-4" d="M1744.03,1695.52l-48.76-20.63c-5.05-2.13-10.87.22-13.01,5.25l-73.52,173.14c-5.73,13.49.58,29.06,14.1,34.78h0l18.09,7.66c13.51,5.72,29.11-.58,34.84-14.07h0l73.52-173.14c2.14-5.04-.22-10.85-5.26-12.99Z"/>
      <path class="cls-16" d="M1875.82,1324.57c-69.55-30.75-150.9.6-181.7,70.02-30.8,69.42.6,150.63,70.15,181.38,69.55,30.75,150.9-.6,181.7-70.02,30.8-69.42-.6-150.63-70.15-181.38Z"/>
      <path class="cls-3" d="M1930.06,1334.15l-9.57-14.49M1701.12,1750.27l-13.92-9.55M1689.52,1542.51c-7.55-5.92-13.59-13.53-17.65-22.22"/>
    </g>
    <g class="cls-31">
      <g class="cls-47">
        <path class="cls-24" d="M1635.62,1723.26c11.06-8.85,14.44-30.54,14.44-30.54l117.19,58.24s-6.68,31.83-37.64,27,38.7,49.42,48.65,50.53c9.95,1.11-134.85,6.65-134.85,6.65l-32-37.66"/>
      </g>
    </g>
    <path class="cls-29" d="M1356.61,1911.37l148.64-61.3s45.46-120.85,61.79-126.69c11.92-4.27,58.68-21.62,83-30.66,9.43-3.5,19.92-2.75,28.75,2.07,25.71,13.94,79.08,42,88.74,40.27,0,0,12.56,42.88-50.13,19.85,0,0-2.33,21-11.66,33.86,0,0-1.16,29.19-9.32,36.19,0,0-12.83,31.53-33.81,42,0,0-91.51,65.39-100.55,75.9-9.04,10.51-205.47,88.74-205.47,88.74l.02-120.23Z"/>
    <g class="cls-30">
      <path class="cls-45" d="M1428.84,1896.58l10-7.19s-21.68,21.57,1.48-10.1c19.48-26.63,16.59,125.09,47.18,118.63,30.59-6.46-67,19.11-67,19.11"/>
    </g>
    <path class="cls-2" d="M1356.61,1911.37l148.64-61.3s45.46-120.85,61.79-126.69c11.92-4.27,58.68-21.62,83-30.66,9.43-3.5,19.92-2.75,28.75,2.07,25.71,13.94,79.08,42,88.74,40.27,0,0,12.56,42.88-50.13,19.85,0,0-2.33,21-11.66,33.86,0,0-1.16,29.19-9.32,36.19,0,0-12.83,31.53-33.81,42,0,0-91.51,65.39-100.55,75.9-9.04,10.51-205.47,88.74-205.47,88.74l.02-120.23Z"/>
    <path class="cls-8" d="M1390.14,2038.9l54.18-26.58s16.59-127.36-6.63-140.65l-53.08,25.52"/>
    <path class="cls-9" d="M1069.15,1967.3c145.21-56.75,342.36-88,342.36-88,33.17,44.31-3.61,212.65-3.61,212.65,0,0-413.08,178.81-484.41,25"/>
    <ellipse class="cls-9" cx="1549.25" cy="1541.29" rx="4.91" ry="4.92"/>
    <ellipse class="cls-9" cx="1549.25" cy="1669.04" rx="4.91" ry="4.92"/>
    <ellipse class="cls-9" cx="1539.42" cy="2043.82" rx="4.91" ry="4.92"/>
    <ellipse class="cls-9" cx="1351.15" cy="2068.87" rx="7.71" ry="7.72"/>
    <ellipse class="cls-9" cx="1233.41" cy="2101.23" rx="7.71" ry="7.72"/>
    <path class="cls-2" d="M2325.66,1811.62l-28.16,21.13M1749.91,1962.94c1.6,14.57-4,29-15,38.68"/>
    <path class="cls-22" d="M1265.27,740.04H128.56c-32.07,0-58.07,26.01-58.06,58.08,0,.02,0,.05,0,.07v521.11c-.02,32.06,25.94,58.07,58,58.11h743.08c29.94,37.87,64.11,81,88.94,112.35,11.48,14.48,34.61,6.17,34.61-12.32v-100h270.08c32.06-.03,58.03-26.05,58-58.11v-521.14c.05-32.05-25.89-58.08-57.94-58.15Z"/>
    <g class="cls-33">
      <path class="cls-21" d="M1323.28,700.73c-7.89,791.05-1385,661.24-1385,661.24l1142.22,316.42,376.67-56.79,89.11-912.76"/>
    </g>
    <path class="cls-2" d="M1265.27,740.04H128.56c-32.07,0-58.07,26.01-58.06,58.08,0,.02,0,.05,0,.07v521.11c-.02,32.06,25.94,58.07,58,58.11h743.08c29.94,37.87,64.11,81,88.94,112.35,11.48,14.48,34.61,6.17,34.61-12.32v-100h270.08c32.06-.03,58.03-26.05,58-58.11v-521.14c.05-32.05-25.89-58.08-57.94-58.15Z"/>
    <ellipse class="cls-8" cx="323.48" cy="1041.28" rx="57.95" ry="58.04"/>
    <ellipse class="cls-8" cx="565.73" cy="1041.28" rx="57.95" ry="58.04"/>
    <ellipse class="cls-8" cx="807.98" cy="1041.28" rx="57.95" ry="58.04"/>
    <ellipse class="cls-8" cx="1050.23" cy="1041.28" rx="57.95" ry="58.04"/>
    <path class="cls-5" d="M408.22,828.25l-93,67.46M1100.5,1229.85l-55.09,20.59"/>
    <g>
      <g>
        <path class="cls-20" d="M2810.26,438.97c0,241.06-195.11,436.48-435.79,436.48-46.22-.05-92.13-7.47-136-22l-274.45,84.83c-30.59,9.46-58-21.76-44.65-50.93l93.5-204.78c-48.48-71.98-74.31-156.82-74.18-243.6,0-241.06,195.11-436.47,435.78-436.47s435.79,195.47,435.79,436.47Z"/>
        <g class="cls-32">
          <path class="cls-28" d="M2707.21,70.79c119.68,1029.13-468.76,782.71-468.76,782.71l254,197.06,788.53-370.21-337.91-567.58"/>
        </g>
        <path class="cls-2" d="M2810.26,438.97c0,241.06-195.11,436.48-435.79,436.48-46.22-.05-92.13-7.47-136-22l-274.45,84.83c-30.59,9.46-58-21.76-44.65-50.93l93.5-204.78c-48.48-71.98-74.31-156.82-74.18-243.6,0-241.06,195.11-436.47,435.78-436.47s435.79,195.47,435.79,436.47Z"/>
        <path class="cls-8" d="M2387.52,381.85c12.98-11.01,22.65-20.91,29-29.72,6.35-8.81,9.51-19.81,9.47-33,0-16.51-5.26-30.26-15.78-41.27-10.52-11.01-25.72-16.51-45.59-16.51-36.7,0-60.21,18.71-70.53,56.13l-67.67-30.27c8.78-29.71,25.41-52.46,49.89-68.23,24.48-15.77,56.02-23.66,94.62-23.67,27.53,0,52.09,4.95,73.7,14.86,21.61,9.91,38.43,23.66,50.47,41.27,12.04,17.62,18.06,37.62,18.06,60,0,18.71-3.25,35.04-9.75,49-6.26,13.57-14.71,26.03-25,36.87-10.14,10.67-25.53,24.98-46.16,42.93-9.91,8.58-17.59,19.44-22.37,31.64-4.59,11.92-6.89,27.42-6.88,46.5h-71.11c0-31.18,3.06-56.04,9.17-74.57s16.82-34.77,32.11-48.7l14.35-13.26ZM2368.59,567.29c14.91,0,26.85,4.31,35.84,12.94,8.99,8.63,13.48,20.09,13.48,34.39s-4.49,25.77-13.48,34.39c-8.99,8.62-20.93,12.94-35.84,12.96-14.91,0-26.86-4.31-35.85-12.94-8.99-8.63-13.48-20.09-13.47-34.39,0-14.31,4.49-25.78,13.47-34.39,8.98-8.61,20.93-12.93,35.85-12.96h0Z"/>
      </g>
      <path class="cls-5" d="M2057.11,592.85l69.82,45.8M2633.22,264.09l15.75,10.7"/>
    </g>
  </g>
</svg>